<?xml version="1.0" standalone="no"?>
<!DOCTYPE svg PUBLIC "-//W3C//DTD SVG 20010904//EN"
 "http://www.w3.org/TR/2001/REC-SVG-20010904/DTD/svg10.dtd">
<svg version="1.0" xmlns="http://www.w3.org/2000/svg"
 width="1024.000000pt" height="1024.000000pt" viewBox="0 0 1024.000000 1024.000000"
 preserveAspectRatio="xMidYMid meet">

<g transform="translate(0.000000,1024.000000) scale(0.100000,-0.100000)"
fill="#000000" stroke="none">
<path d="M0 5120 l0 -5120 1765 0 1766 0 -3 78 c-3 65 -6 77 -20 77 -10 0 -23
8 -30 18 -7 10 -24 23 -38 30 -14 7 -30 23 -37 37 -7 14 -18 29 -26 35 -19 15
-28 43 -14 49 7 2 -32 5 -85 5 -91 1 -98 2 -98 21 0 11 -4 20 -10 20 -5 0 -10
-9 -10 -20 0 -11 -4 -20 -10 -20 -5 0 -13 0 -17 -1 -5 0 -11 10 -15 23 -4 16
-7 8 -9 -27 l-2 -50 -7 45 c-6 38 -7 40 -8 13 -1 -17 -7 -35 -12 -38 -7 -4
-10 56 -10 173 0 164 -2 186 -25 256 -14 42 -25 83 -25 91 0 9 -10 15 -24 15
-36 0 -76 16 -421 170 -404 180 -476 210 -659 276 -167 60 -212 86 -257 147
-45 60 -103 190 -123 272 -10 41 -27 81 -40 95 -60 64 -427 633 -565 873 -236
413 -338 647 -446 1022 -56 195 -119 386 -170 515 -66 168 -75 200 -75 275 1
136 77 208 220 207 180 0 332 -142 375 -347 21 -102 43 -285 34 -285 -4 0 -9
5 -11 12 -2 6 -12 9 -21 5 -22 -8 -12 -34 16 -41 31 -8 92 -107 118 -191 26
-81 119 -431 119 -445 0 -10 -18 -23 -49 -34 -27 -9 -57 -26 -67 -37 -21 -23
-10 -24 46 -4 23 8 72 15 107 15 l65 0 -6 -27 c-3 -16 -9 -62 -12 -103 -13
-156 33 -245 386 -756 46 -66 96 -135 112 -154 72 -84 220 -228 304 -295 99
-80 128 -115 230 -282 88 -144 181 -269 266 -358 79 -84 110 -104 133 -85 8 7
15 15 15 19 0 4 -37 45 -81 91 -105 110 -144 160 -282 371 -115 174 -166 232
-301 344 -108 90 -215 205 -314 338 -156 211 -262 372 -348 530 -46 83 -49 98
-10 40 40 -59 298 -332 320 -340 41 -14 50 -11 110 32 82 58 170 145 186 184
12 29 11 35 -11 65 -46 64 -357 378 -371 374 -31 -11 -4 -47 158 -215 93 -98
174 -184 178 -190 13 -23 -177 -203 -215 -203 -14 0 -197 187 -307 313 -89
102 -106 140 -97 214 5 43 14 61 51 102 26 29 60 55 81 62 49 16 152 5 205
-22 49 -25 331 -215 395 -266 78 -62 330 -340 436 -480 130 -171 215 -239 375
-297 39 -14 116 -48 172 -76 56 -28 104 -49 106 -47 5 5 -73 68 -110 89 l-31
16 30 14 c41 18 261 15 445 -6 401 -46 620 -152 905 -440 232 -234 360 -464
394 -710 7 -48 11 -287 11 -627 l0 -549 420 0 420 0 0 559 c0 680 5 719 113
936 79 161 217 335 381 483 259 234 488 322 932 357 189 15 224 14 297 -7 44
-13 46 -20 12 -38 -14 -7 -32 -24 -40 -36 -15 -23 -15 -23 12 -13 16 6 46 21
68 33 22 13 84 40 137 60 174 67 240 116 356 266 189 242 418 488 532 569 36
25 101 73 146 107 187 141 334 168 438 82 43 -35 61 -67 70 -126 14 -95 -13
-136 -252 -381 -138 -141 -141 -144 -176 -138 -20 3 -38 2 -41 -3 -18 -29 47
-66 88 -51 20 8 280 263 322 316 9 11 -1 -12 -22 -52 -20 -39 -41 -69 -47 -66
-5 3 -6 1 -2 -5 8 -13 -62 -127 -178 -287 -43 -60 -89 -123 -100 -140 -87
-125 -208 -251 -376 -391 -112 -94 -135 -121 -205 -234 -56 -90 -163 -249
-175 -260 -3 -3 -13 -17 -22 -32 -10 -14 -57 -68 -105 -118 -48 -51 -88 -98
-89 -106 -1 -7 7 -16 17 -19 22 -7 66 25 138 99 24 25 49 42 54 39 6 -3 7 -1
3 5 -4 7 10 33 33 60 42 50 129 180 225 337 54 88 71 106 200 214 200 168 285
266 488 566 139 206 239 378 267 462 22 66 27 160 12 226 -8 35 -7 38 16 43
14 4 61 4 104 1 44 -4 79 -4 79 -2 0 9 -80 45 -100 45 -17 0 -19 4 -14 27 31
132 118 467 131 503 9 25 26 61 38 80 18 28 23 56 28 145 11 207 60 337 167
446 74 75 133 107 221 119 159 23 254 -40 274 -180 9 -64 -6 -119 -95 -345
-85 -217 -115 -304 -184 -550 -60 -212 -88 -298 -127 -381 -17 -38 -49 -109
-70 -157 -72 -164 -355 -659 -477 -837 -47 -69 -122 -179 -166 -245 -44 -66
-98 -145 -120 -175 -27 -37 -48 -81 -64 -135 -29 -104 -97 -239 -144 -287 -45
-45 -104 -76 -218 -113 -148 -48 -219 -78 -846 -356 -111 -49 -213 -89 -228
-89 -15 0 -29 -7 -32 -15 -4 -8 -11 -12 -17 -8 -7 4 -8 0 -4 -11 4 -9 -2 -52
-12 -94 -11 -42 -23 -129 -28 -192 -4 -66 -9 -98 -11 -75 l-4 40 -13 -40 -13
-40 -1 36 c-2 59 -13 99 -27 99 -8 0 -14 -10 -15 -22 l0 -23 -9 23 c-5 12 -13
22 -19 22 -10 0 -21 -34 -21 -67 0 -19 -6 -22 -47 -25 -40 -3 -49 -7 -63 -32
-9 -17 -29 -37 -45 -46 -34 -19 -44 -40 -18 -40 13 -1 7 -10 -24 -39 -37 -34
-43 -44 -43 -80 0 -25 -5 -41 -12 -41 -6 0 -22 -10 -35 -22 l-23 -21 -1 24
c-2 29 -17 -62 -18 -108 l-1 -33 1770 0 1770 0 0 5120 0 5120 -5120 0 -5120 0
0 -5120z m5223 4715 c75 -16 167 -61 225 -111 91 -77 159 -219 169 -353 19
-256 -152 -491 -394 -541 -73 -16 -213 -8 -278 15 -348 122 -450 590 -185 855
122 123 291 172 463 135z m-1480 -21 c35 -12 62 -33 105 -80 l57 -63 40 9
c106 25 215 -44 215 -135 0 -32 -6 -47 -26 -66 l-26 -24 -375 0 -375 0 -29 33
c-75 83 0 212 124 212 26 0 37 6 47 26 8 14 31 39 52 56 63 49 115 58 191 32z
m-2499 -230 c3 -9 6 -33 6 -55 0 -35 4 -42 36 -61 28 -16 34 -26 32 -47 -2
-20 -11 -28 -35 -36 -31 -9 -33 -12 -33 -56 0 -40 -4 -49 -21 -54 -28 -9 -39
8 -39 61 0 38 -2 41 -37 50 -31 7 -39 14 -41 36 -3 23 3 30 37 48 35 17 41 25
41 53 0 50 11 77 30 77 10 0 21 -7 24 -16z m5319 -25 l27 -40 -34 -35 c-32
-33 -35 -34 -41 -14 -4 11 -17 28 -30 36 l-24 16 32 39 c17 21 34 39 37 38 3
0 17 -18 33 -40z m-3704 -15 l23 -26 -24 -27 c-13 -14 -24 -27 -24 -29 -1 -1
-15 10 -32 26 l-31 29 27 26 c15 15 29 27 32 27 4 0 17 -12 29 -26z m-674 -69
c176 -46 326 -193 378 -372 60 -204 11 -393 -142 -544 -62 -61 -91 -81 -151
-106 -99 -41 -185 -57 -268 -50 -172 15 -312 95 -403 230 -113 169 -121 415
-19 587 122 208 375 314 605 255z m6172 -10 c230 -78 373 -279 373 -525 -1
-104 -11 -152 -53 -237 -97 -200 -319 -318 -547 -291 -358 43 -586 406 -460
730 63 160 213 293 376 332 98 24 223 20 311 -9z m-1082 -75 c3 -11 16 -25 27
-31 20 -11 20 -11 -6 -35 -14 -14 -26 -29 -26 -34 0 -19 -17 -10 -30 15 -7 14
-19 25 -27 25 -19 0 -17 7 15 46 31 39 38 41 47 14z m-2755 -139 l0 -39 -92
-17 c-212 -39 -444 -110 -648 -196 -63 -27 -120 -49 -126 -49 -7 0 -19 11 -28
25 -15 23 -15 25 6 39 38 25 250 113 360 150 118 39 223 67 383 101 150 32
145 33 145 -14z m1341 14 c152 -31 353 -86 477 -131 124 -45 292 -124 292
-138 0 -6 -8 -21 -18 -32 l-17 -22 -122 54 c-210 92 -455 166 -680 205 -73 12
-73 12 -73 44 0 26 6 45 15 45 1 0 58 -11 126 -25z m3354 -82 c20 -47 48 -78
86 -93 40 -17 36 -33 -12 -54 -34 -15 -46 -28 -62 -67 -12 -27 -24 -49 -27
-49 -3 0 -16 23 -27 50 -18 43 -29 54 -68 71 -51 22 -50 28 6 57 23 13 42 34
59 70 14 29 26 52 27 52 2 0 10 -17 18 -37z m-8485 -97 c0 -3 -5 -6 -10 -6 -6
0 -24 -15 -41 -32 -24 -26 -32 -30 -36 -18 -4 8 -19 27 -35 42 l-29 27 38 38
38 38 37 -41 c21 -23 38 -44 38 -48z m3523 -160 c-23 -32 -35 -32 -54 0 -15
24 -14 27 5 49 l20 23 24 -23 c23 -24 23 -24 5 -49z m-831 -54 c44 -21 84 -52
120 -91 212 -228 144 -584 -136 -717 -176 -84 -365 -43 -504 110 -156 170
-136 460 43 625 88 81 174 111 311 108 90 -2 107 -6 166 -35z m3738 9 c115
-43 223 -172 255 -301 28 -113 18 -211 -30 -306 -46 -91 -121 -164 -215 -208
-60 -29 -73 -31 -170 -31 -99 1 -109 3 -168 33 -160 83 -252 233 -254 412 -1
198 102 346 286 412 69 25 217 20 296 -11z m-2000 -199 l0 -79 158 -6 c378
-16 769 -107 1166 -273 85 -36 88 -38 116 -93 34 -69 120 -157 187 -194 55
-29 158 -57 216 -57 33 0 56 -13 150 -83 295 -219 521 -456 709 -740 37 -56
73 -111 81 -121 13 -19 18 -18 148 38 139 60 342 146 346 146 3 0 23 -73 23
-86 0 -6 -15 -15 -32 -21 -18 -6 -94 -37 -168 -68 -74 -32 -160 -68 -190 -81
-30 -12 -56 -27 -58 -33 -2 -5 28 -74 66 -153 81 -168 109 -241 157 -403 71
-240 108 -451 126 -710 13 -187 6 -490 -14 -620 -12 -76 -13 -79 -42 -85 -71
-15 -151 -85 -182 -159 -10 -23 -18 -31 -21 -21 -11 36 -46 60 -84 60 -74 0
-144 -44 -194 -122 -44 -69 -21 -66 56 7 89 86 152 97 190 35 14 -22 30 -39
37 -37 6 1 31 31 55 67 32 48 49 65 65 64 15 0 24 7 27 22 7 25 43 41 58 26 9
-9 -12 -115 -45 -221 l-14 -44 -22 37 c-14 21 -30 36 -42 36 -93 0 -274 -191
-364 -386 l-43 -91 -91 -57 c-99 -63 -127 -94 -152 -170 -16 -51 -34 -60 -34
-19 -1 12 -11 30 -23 40 -21 17 -22 26 -24 217 -3 214 -7 229 -50 183 -13 -13
-35 -27 -50 -31 -25 -6 -28 -11 -28 -51 0 -44 0 -45 -34 -45 -36 0 -46 15 -46
73 0 66 -95 188 -178 228 -67 33 -198 33 -263 1 -119 -58 -179 -150 -187 -283
l-5 -79 -33 0 c-36 0 -44 16 -22 38 10 10 8 14 -9 18 -26 7 -40 41 -24 57 17
17 13 24 -21 38 -18 7 -43 24 -56 37 -12 13 -30 22 -40 20 -15 -3 -17 -22 -18
-203 l-1 -199 -32 -13 c-24 -10 -31 -19 -31 -41 0 -19 -7 -30 -22 -37 -22 -9
-23 -15 -22 -114 0 -89 3 -105 19 -117 15 -12 122 -14 597 -14 l578 0 0 -27
c-1 -27 -38 -148 -40 -128 0 6 -5 2 -11 -7 -11 -20 -45 -24 -51 -6 -3 8 -9 8
-24 0 -10 -6 -13 -12 -6 -12 7 0 10 -5 7 -10 -4 -6 -1 -9 7 -8 7 2 13 -6 13
-17 0 -11 -4 -20 -10 -20 -5 0 -31 -22 -58 -48 -26 -26 -52 -45 -57 -42 -6 3
-10 2 -10 -4 0 -21 -46 -80 -62 -81 -11 0 -18 -8 -18 -19 0 -15 -10 -20 -52
-25 -29 -4 -64 -8 -77 -10 -14 -2 -32 -12 -40 -23 -9 -10 -25 -22 -36 -27 -16
-6 -18 -5 -7 5 23 24 12 32 -13 9 l-24 -23 -20 44 c-45 105 -159 150 -325 129
-115 -15 -312 -76 -380 -118 -34 -21 -73 -43 -88 -49 -48 -21 -189 -34 -333
-31 l-140 3 -7 85 c-21 272 -231 471 -498 470 -86 -1 -140 -14 -228 -56 -170
-82 -274 -252 -274 -449 0 -135 34 -225 123 -332 37 -44 40 -52 36 -97 -2 -26
-8 -51 -14 -55 -5 -3 -6 -19 -2 -36 l7 -30 1 30 2 30 13 -38 c8 -20 19 -44 26
-52 6 -8 9 -19 5 -25 -4 -6 1 -20 10 -30 16 -18 16 -19 -3 -17 -11 0 -18 5
-15 10 9 15 -17 34 -48 35 -18 0 -35 5 -39 11 -4 7 -73 13 -179 15 -103 3
-178 9 -184 15 -6 6 -50 11 -99 11 -85 0 -89 1 -116 30 -21 21 -39 30 -62 30
-17 0 -43 9 -57 20 -14 11 -41 20 -59 20 -36 0 -84 18 -84 32 0 15 -38 8 -44
-8 -6 -16 -8 -16 -24 0 -10 9 -26 16 -34 16 -9 0 -15 8 -14 17 1 23 -70 39
-92 21 -11 -9 -13 -9 -9 -1 4 7 0 13 -10 16 -13 3 -10 5 7 6 19 1 22 3 11 10
-9 6 -22 6 -34 0 -13 -7 -23 -7 -32 1 -8 7 -19 9 -25 5 -5 -3 -21 6 -35 22
-13 15 -25 22 -25 15 0 -9 -10 -6 -32 9 -18 13 -26 25 -19 27 6 2 18 -2 27 -8
8 -7 18 -10 21 -6 12 12 -20 26 -57 25 -57 -2 -63 0 -56 17 8 22 -4 40 -16 23
-7 -11 -9 -11 -7 1 3 28 -1 41 -10 36 -10 -7 -21 16 -21 44 0 9 -7 23 -15 30
-9 7 -13 21 -10 31 5 14 1 19 -11 19 -14 0 -15 2 -3 17 10 11 10 14 2 9 -8 -4
-13 -2 -13 5 0 7 -3 9 -7 6 -4 -4 -13 7 -20 25 -31 75 -79 129 -167 190 -60
41 -97 75 -117 106 -16 25 -29 50 -29 54 0 4 215 8 477 8 429 0 478 2 495 17
15 14 18 32 18 129 l0 113 -30 16 c-26 13 -30 21 -30 56 0 36 -3 41 -30 50
-24 9 -30 17 -30 39 0 20 -6 31 -21 35 -20 7 -21 13 -17 116 3 116 9 129 54
129 18 0 23 7 26 40 4 43 -6 80 -21 80 -6 0 -124 54 -264 120 -139 66 -261
120 -270 120 -10 0 -76 -29 -147 -65 -78 -39 -130 -60 -130 -52 0 19 -39 89
-67 119 -46 49 -137 81 -240 86 -80 4 -93 7 -93 22 0 32 45 85 135 157 l90 72
460 1 c284 0 474 4 497 10 45 13 52 36 47 170 -4 100 -10 110 -67 110 -33 0
-33 0 -32 48 1 26 1 68 1 95 l-1 47 -105 0 c-119 0 -115 -2 -154 96 l-20 52
36 7 c19 3 69 19 111 36 l76 29 38 -40 c46 -48 127 -76 195 -66 76 10 75 21
-2 22 -84 2 -129 22 -178 80 -16 19 -37 34 -46 34 -10 0 -64 -16 -121 -35 -57
-19 -109 -35 -114 -35 -10 1 -38 40 -97 138 -23 40 -34 35 -74 -34 -14 -24
-27 -44 -29 -44 -2 0 -29 42 -59 93 -74 125 -79 128 -111 80 -13 -21 -39 -71
-57 -111 l-32 -73 -39 60 c-21 34 -45 61 -53 61 -9 0 -35 -30 -58 -67 -24 -38
-70 -109 -102 -160 -61 -97 -78 -109 -138 -98 -18 3 -45 2 -62 -3 l-30 -8 -5
-100 -5 -99 -30 -5 -30 -5 -7 -95 c-3 -52 -4 -110 -1 -128 9 -55 30 -62 191
-62 l144 0 -59 -47 c-129 -103 -163 -153 -148 -216 6 -23 11 -24 116 -29 94
-5 117 -10 167 -34 80 -41 132 -123 101 -161 -14 -16 -150 -86 -189 -96 -19
-5 -21 -11 -18 -54 2 -38 7 -49 23 -52 44 -8 55 -37 55 -147 0 -99 -1 -103
-22 -106 -17 -2 -24 -11 -26 -31 -2 -18 -13 -32 -33 -42 -23 -13 -29 -22 -29
-49 0 -27 -7 -39 -36 -61 -24 -19 -42 -25 -59 -21 -12 3 -92 72 -175 153 -84
82 -162 155 -174 163 -12 8 -39 15 -61 15 l-40 1 -60 120 c-150 299 -232 636
-255 1047 -17 308 9 582 81 876 54 216 114 382 205 570 41 84 74 154 72 155
-7 4 -346 150 -395 170 -56 22 -61 31 -42 85 12 35 12 35 37 21 16 -9 317
-141 405 -177 21 -8 39 -14 41 -12 2 2 38 58 81 124 167 257 494 591 764 777
67 46 80 51 137 55 156 8 329 122 392 256 25 53 31 58 112 92 370 155 803 257
1153 272 l147 6 0 79 0 78 45 0 45 0 0 -78z m4004 -159 c17 -95 15 -93 57 -99
87 -14 90 -54 5 -54 l-54 0 -11 -42 c-6 -24 -15 -50 -21 -58 -14 -21 -26 0
-34 59 l-6 47 -52 3 c-91 4 -93 23 -6 49 l63 18 10 50 c17 84 37 95 49 27z
m-8065 -17 c14 -62 19 -68 78 -85 75 -21 70 -43 -10 -51 l-52 -5 -9 -47 c-9
-54 -32 -65 -42 -20 -13 62 -16 65 -80 66 -51 1 -59 4 -59 20 0 14 13 22 55
33 30 7 57 19 61 25 4 6 10 32 13 58 11 79 28 82 45 6z m1350 -232 c62 -86
107 -141 111 -134 4 6 20 10 36 8 27 -3 29 -7 34 -55 4 -46 13 -61 80 -144 41
-51 91 -110 110 -132 l34 -39 -34 -29 c-19 -16 -38 -27 -41 -26 -4 1 -57 66
-119 145 -106 135 -114 142 -147 142 -35 0 -35 1 -29 32 5 28 -2 42 -63 122
-87 116 -151 207 -151 217 0 9 49 38 65 38 6 0 57 -65 114 -145z m5496 134
c14 -6 25 -14 25 -18 0 -8 -154 -234 -187 -273 -12 -16 -23 -39 -23 -52 0 -38
-11 -55 -34 -55 -11 0 -26 -4 -32 -8 -10 -6 -143 -171 -206 -252 l-26 -35 -31
29 c-17 17 -31 34 -31 38 0 5 48 68 107 140 100 123 107 134 108 176 0 55 23
76 53 49 17 -16 20 -14 62 46 70 101 170 227 180 227 5 0 21 -5 35 -12z
m-6035 -550 c-10 -9 -20 -23 -23 -30 -3 -9 -15 -2 -36 21 l-32 34 28 29 28 29
27 -33 c26 -32 26 -34 8 -50z m-528 7 c90 -31 161 -79 233 -157 197 -213 196
-538 -3 -759 -117 -131 -247 -189 -420 -189 -169 0 -294 50 -402 159 -112 114
-164 240 -164 401 0 268 180 498 442 565 83 21 221 12 314 -20z m7812 13 c145
-36 293 -162 361 -307 73 -153 73 -356 0 -506 -58 -119 -184 -231 -312 -277
-80 -29 -236 -36 -324 -14 -292 74 -484 371 -425 656 25 119 83 225 166 304
99 93 191 137 340 160 35 5 147 -4 194 -16z m-1160 -118 c9 -22 16 -53 16 -69
0 -28 -2 -28 -66 -35 -37 -4 -68 -6 -69 -4 -2 2 -5 27 -6 57 l-4 53 45 19 c62
25 66 24 84 -21z m-5706 -12 c27 -90 25 -98 -30 -121 -36 -15 -38 -15 -76 13
-22 16 -43 34 -47 40 -14 23 82 98 127 100 10 0 20 -12 26 -32z m-1335 -1308
c66 -25 124 -74 166 -138 l31 -49 79 5 c92 5 138 -7 188 -51 81 -72 85 -176 8
-247 l-27 -25 -498 0 c-490 0 -499 0 -527 21 -46 34 -73 82 -73 131 0 108 95
193 216 193 38 0 45 4 64 35 30 49 104 111 153 129 61 21 156 20 220 -4z
m8330 -91 l46 -30 41 21 c23 12 50 18 60 15 18 -6 40 -52 40 -83 0 -8 14 -31
30 -52 17 -21 30 -47 30 -59 0 -11 -13 -30 -30 -43 -27 -19 -30 -28 -30 -74 0
-67 -34 -106 -65 -75 -6 6 -26 17 -46 25 -36 15 -38 15 -74 -14 -21 -17 -48
-30 -61 -30 -30 0 -64 45 -64 85 0 33 -10 41 -76 60 -14 3 -24 17 -28 36 -10
53 2 76 59 108 46 26 53 34 59 70 4 25 14 46 28 55 29 21 27 21 81 -15z
m-6163 -520 c0 -6 21 -43 47 -82 26 -40 48 -85 49 -102 1 -16 17 -70 34 -118
42 -119 37 -134 -23 -59 l-49 60 -32 -36 -33 -36 -28 22 c-15 12 -34 22 -41
22 -7 0 -29 -20 -50 -45 -20 -25 -39 -44 -41 -41 -15 15 141 441 158 430 5 -3
9 -10 9 -15z m-190 -129 c19 -37 30 -73 29 -97 l-1 -38 -8 34 c-16 67 -29 67
-104 -4 -57 -54 -68 -69 -64 -90 5 -22 2 -25 -24 -25 -27 0 -28 2 -17 23 6 12
17 29 24 37 7 8 16 26 20 40 8 24 104 180 111 180 2 0 17 -27 34 -60z m456
-80 c5 -22 2 -21 -29 14 l-35 40 -13 -42 c-14 -47 -26 -53 -38 -19 -6 16 -1
37 21 81 l30 59 29 -54 c17 -29 32 -65 35 -79z m6308 124 c31 -5 46 -11 46
-22 0 -8 -21 -46 -47 -85 -46 -70 -47 -70 -62 -47 -30 43 -80 144 -75 152 6
10 74 10 138 2z m-822 -312 c16 -26 15 -28 -9 -50 l-26 -23 -22 27 -22 28 20
27 c23 32 37 29 59 -9z m-6114 12 c94 -12 54 -24 -78 -24 -109 0 -130 2 -130
15 0 12 15 15 78 15 42 0 101 -3 130 -6z m930 -48 c2 -16 -2 -32 -10 -37 -7
-5 -77 -9 -155 -9 l-143 0 0 40 0 41 153 -3 152 -3 3 -29z m-3429 -7 l23 -31
-27 -28 -27 -29 -24 29 c-13 15 -24 30 -24 33 0 7 44 57 51 57 3 0 16 -14 28
-31z m2651 -23 c0 -22 -33 -26 -207 -26 -156 0 -163 1 -163 20 0 19 7 20 185
20 151 0 185 -3 185 -14z m-1690 -72 l55 -26 -30 -12 c-60 -25 -105 -26 -157
-4 -27 11 -47 25 -45 31 4 13 64 35 97 36 14 1 50 -11 80 -25z m1598 10 c153
-11 103 -24 -93 -24 -108 0 -185 4 -185 9 0 18 132 25 278 15z m862 -8 c0 -18
-72 -26 -242 -26 -131 0 -138 1 -138 20 0 19 7 20 190 20 154 0 190 -3 190
-14z m108 -163 c1 -51 -1 -94 -5 -94 -43 -7 -1301 -3 -1310 4 -14 10 -18 141
-7 171 6 15 71 16 663 14 l656 -3 3 -92z m5347 56 c30 -11 55 -24 55 -29 0
-16 -108 -42 -143 -35 -42 8 -107 36 -107 46 0 10 79 37 112 38 15 1 52 -8 83
-20z m-8404 -270 c55 -28 137 -112 161 -166 12 -27 23 -40 32 -37 18 7 111
-107 175 -215 56 -92 113 -258 136 -395 18 -105 18 -106 5 -106 -5 0 -10 5
-10 12 0 6 -10 22 -22 35 -18 19 -32 23 -84 23 -76 0 -93 -6 -87 -29 4 -15 14
-18 56 -17 29 0 68 -3 88 -7 41 -8 50 -29 94 -207 15 -58 44 -158 66 -222 41
-122 46 -143 28 -118 -8 11 -12 12 -16 3 -2 -7 -10 -13 -17 -13 -7 0 -36 -12
-65 -26 -30 -14 -60 -23 -68 -19 -11 4 -13 1 -9 -10 3 -10 1 -15 -7 -14 -6 1
-20 -1 -29 -5 -28 -13 -46 0 -57 41 -6 21 -24 85 -40 143 -16 58 -41 149 -55
202 -15 54 -44 135 -66 180 -31 68 -43 112 -64 238 -15 85 -35 183 -47 217
-24 73 -81 163 -135 215 -43 41 -145 98 -175 98 -17 0 -19 8 -18 63 0 34 5 78
12 97 24 70 122 88 218 39z m8876 4 c29 -19 43 -63 43 -134 l0 -57 -52 -18
c-89 -29 -152 -80 -235 -189 -62 -82 -101 -204 -127 -402 -9 -66 -24 -129 -35
-152 -21 -41 -66 -195 -121 -411 -53 -211 -49 -200 -71 -200 -11 0 -39 15 -62
34 -41 32 -122 66 -158 66 -10 0 -17 6 -15 13 18 62 41 125 45 122 3 -2 6 7 7
18 1 28 60 237 87 305 16 43 17 56 7 62 -28 17 23 249 84 390 63 143 204 353
234 348 10 -2 18 8 24 28 10 38 85 124 135 156 76 46 158 55 210 21z m-8505
-172 c56 -36 163 -181 220 -300 22 -46 64 -149 93 -230 62 -169 90 -239 135
-336 18 -38 68 -175 112 -305 44 -129 86 -250 94 -267 7 -18 11 -33 8 -33 -3
0 -29 20 -57 45 -49 43 -214 135 -242 135 -7 0 -34 61 -64 148 -58 168 -88
281 -96 367 -30 291 -127 529 -296 726 -36 42 -45 59 -36 68 21 21 81 12 129
-18z m8079 13 c17 -16 17 -18 -13 -48 -86 -85 -235 -365 -272 -511 -8 -33 -25
-118 -36 -189 -11 -71 -32 -170 -46 -219 -28 -95 -98 -297 -114 -327 -5 -10
-35 -26 -66 -36 -68 -21 -156 -73 -208 -122 l-38 -37 7 35 c4 19 17 60 30 90
12 30 39 107 60 170 44 134 111 302 156 392 29 58 45 99 130 331 66 180 136
302 233 406 73 77 138 101 177 65z m-1006 -154 c14 -27 13 -35 -7 -96 -21 -65
-153 -336 -184 -378 -16 -21 -16 -21 -9 4 10 32 42 98 66 132 29 40 25 52 -15
45 -33 -5 -34 -5 -18 12 9 10 20 16 25 14 4 -2 7 5 7 17 0 19 18 70 57 158 8
18 11 37 8 42 -3 6 -2 10 3 10 5 0 15 18 22 40 14 43 23 43 45 0z m-85 -25
c-7 -9 -15 -13 -19 -10 -3 3 1 10 9 15 21 14 24 12 10 -5z m-1095 -18 c54 -15
147 -108 163 -163 19 -66 15 -161 -9 -211 -43 -89 -141 -144 -257 -144 -101
-1 -199 58 -244 145 -31 59 -31 164 0 231 62 135 188 187 347 142z m1068 -35
c2 7 4 -1 3 -18 -1 -17 -6 -31 -13 -31 -6 0 -9 6 -6 13 2 7 -1 23 -7 36 -10
21 -10 21 3 5 11 -13 16 -15 20 -5z m-6605 -29 c45 -37 86 -110 163 -293 101
-239 109 -253 323 -575 130 -195 212 -326 219 -354 7 -25 23 -52 37 -63 14
-10 59 -44 100 -75 113 -84 264 -218 324 -287 56 -63 156 -219 156 -243 0 -10
-19 -13 -76 -13 -41 0 -106 -5 -144 -11 -78 -13 -68 -19 -170 101 -184 219
-375 417 -467 486 -40 30 -76 60 -80 67 -8 13 -45 118 -153 434 -38 112 -74
212 -80 224 -11 19 -9 20 27 14 37 -6 38 -6 13 9 -14 8 -33 15 -43 16 -17 0
-35 26 -25 35 2 3 19 1 36 -4 61 -18 29 22 -35 44 -31 11 -41 21 -55 57 -9 23
-49 126 -89 228 -39 102 -77 192 -84 200 -32 39 -30 43 19 38 32 -4 59 -15 84
-35z m7362 26 c0 -6 -8 -23 -18 -37 -26 -39 -34 -58 -113 -267 -39 -104 -76
-196 -81 -202 -6 -7 -20 -13 -32 -13 -20 0 -53 -26 -69 -56 -6 -11 44 -11 62
1 6 3 11 2 11 -3 0 -12 -50 -62 -61 -62 -5 0 -9 -5 -9 -11 0 -5 5 -7 11 -3 14
8 13 5 -66 -221 -141 -404 -145 -413 -200 -459 -63 -52 -287 -277 -385 -387
-41 -46 -83 -92 -94 -104 -10 -11 -36 -44 -58 -72 -35 -46 -44 -52 -67 -47
-14 3 -81 8 -148 11 -68 3 -123 10 -123 15 0 34 105 192 185 277 66 70 206
190 318 271 81 59 91 70 109 120 11 30 52 102 91 160 337 499 353 526 410 667
138 344 195 425 305 432 12 0 22 -4 22 -10z m-872 -74 c-3 -3 -9 2 -12 12 -6
14 -5 15 5 6 7 -7 10 -15 7 -18z m-15 -32 c-5 -12 -3 -14 7 -8 9 6 11 4 5 -4
-5 -9 -11 -9 -17 -3 -6 6 -7 15 -4 21 11 17 16 13 9 -6z m-42 -16 c-10 -9 -11
-8 -5 6 3 10 9 15 12 12 3 -3 0 -11 -7 -18z m136 -13 c-3 -3 -12 -4 -19 -1 -8
3 -5 6 6 6 11 1 17 -2 13 -5z m-4279 -23 c18 -3 33 -10 32 -16 0 -14 -1000
-19 -1014 -5 -16 16 0 23 66 29 79 8 871 1 916 -8z m2681 -10 c23 -18 24 -24
29 -170 l5 -151 -37 0 -36 0 0 170 c0 94 3 170 8 170 4 0 18 -9 31 -19z m961
-156 l0 -165 -35 0 -35 0 0 108 c0 147 9 210 29 215 41 11 41 13 41 -158z
m-4330 65 c0 -19 -7 -20 -98 -20 -92 0 -122 8 -122 32 0 4 50 8 110 8 103 0
110 -1 110 -20z m319 11 c32 -20 -3 -31 -99 -31 -62 0 -101 4 -106 11 -12 20
20 29 106 29 47 0 91 -4 99 -9z m339 -5 c2 -3 1 -9 -3 -15 -4 -7 -47 -11 -111
-11 -83 0 -104 3 -104 14 0 8 8 17 18 20 19 6 193 -1 200 -8z m4279 -38 c-3
-8 -6 -5 -6 6 -1 11 2 17 5 13 3 -3 4 -12 1 -19z m-5079 -101 l3 -87 -31 0
-30 0 0 90 0 91 28 -4 c27 -4 27 -4 30 -90z m132 3 c0 -89 0 -90 -25 -90 -25
0 -25 1 -25 90 0 89 0 90 25 90 25 0 25 -1 25 -90z m194 44 c3 -26 6 -68 6
-94 0 -46 0 -46 -30 -42 l-30 4 0 89 c0 87 1 89 24 89 20 0 24 -6 30 -46z
m130 30 c3 -9 6 -49 6 -90 l0 -74 -27 0 -28 0 3 90 c3 79 6 90 22 90 10 0 21
-7 24 -16z m194 -80 l3 -91 -31 5 -30 4 0 83 c0 84 5 96 40 92 12 -2 16 -21
18 -93z m130 -3 c-3 -81 -4 -86 -25 -89 -22 -3 -23 -1 -23 91 l0 94 25 -5 c25
-4 26 -5 23 -91z m3582 4 l0 -95 -40 0 -41 0 3 87 3 88 30 6 c17 4 33 7 38 8
4 0 7 -42 7 -94z m-679 44 c7 -18 30 -53 51 -80 21 -27 38 -51 38 -54 0 -3
-45 -5 -100 -5 l-100 0 0 85 0 85 49 0 c45 0 50 -2 62 -31z m1170 8 c-6 -8 -9
-16 -6 -19 9 -9 -18 -72 -52 -123 -18 -27 -68 -83 -112 -122 l-79 -73 4 62 c2
40 10 68 21 81 10 12 12 17 4 12 -17 -10 -9 4 28 53 27 35 131 102 158 102 9
0 13 3 10 7 -4 3 1 12 11 19 22 17 27 17 13 1z m-5458 -237 c56 -85 127 -189
158 -230 61 -82 73 -100 65 -100 -10 0 -146 189 -238 331 -94 143 -138 219
-103 174 9 -11 62 -90 118 -175z m4844 93 c-3 -2 -20 -3 -37 -1 l-33 3 34 41
34 41 3 -40 c2 -21 1 -41 -1 -44z m-5019 -51 c-24 -5 -23 -29 2 -42 11 -6 20
-8 20 -4 0 4 9 -1 19 -10 15 -13 20 -14 24 -4 3 8 6 5 7 -7 0 -11 8 -31 16
-45 l15 -25 -6 30 -6 30 16 -23 c9 -13 14 -30 11 -39 -4 -10 -2 -14 7 -10 9 3
20 -8 31 -29 20 -43 21 -53 0 -28 -14 18 -15 18 -4 -4 6 -12 15 -20 19 -18 4
3 19 -6 31 -19 13 -14 20 -25 16 -25 -4 0 -4 -5 0 -11 4 -8 9 -7 16 2 7 10 8
6 5 -13 -2 -16 -1 -28 4 -28 4 0 9 -6 12 -12 2 -7 2 -2 0 12 l-4 25 16 -23 c9
-12 13 -27 9 -34 -5 -7 -2 -9 9 -5 11 4 14 2 10 -9 -5 -13 8 -19 31 -15 4 1 6
-9 2 -22 -4 -18 1 -30 20 -48 18 -17 23 -19 18 -6 -3 9 -10 17 -14 17 -4 0
-11 8 -14 18 -6 16 15 -4 94 -93 19 -22 33 -46 32 -53 -2 -8 1 -11 6 -8 5 3
48 -35 97 -85 87 -90 87 -90 69 -112 l-19 -22 23 20 c22 19 25 19 36 3 7 -10
15 -16 18 -13 2 3 15 -7 29 -21 17 -18 19 -23 6 -18 -9 3 -17 11 -17 17 0 6
-3 7 -7 4 -3 -4 2 -17 13 -29 16 -18 17 -21 2 -15 -12 4 -15 2 -12 -8 5 -12 9
-12 27 0 19 12 25 12 42 -1 11 -8 20 -20 20 -27 1 -7 7 -11 14 -9 7 1 10 -2 7
-7 -7 -10 17 -33 30 -29 13 3 57 -23 50 -29 -3 -4 -16 2 -28 13 -13 10 -9 4 7
-15 38 -42 67 -59 58 -34 -6 17 -5 17 13 2 10 -9 28 -21 39 -27 18 -9 18 -10
-5 -11 -60 -2 -76 -6 -92 -24 -11 -12 -18 -15 -18 -8 0 7 9 20 21 30 l20 16
-25 24 c-29 27 -36 13 -8 -15 15 -16 15 -17 0 -12 -9 4 -19 2 -22 -5 -2 -7 -5
5 -5 26 -1 25 -6 37 -16 37 -9 0 -12 6 -9 15 4 8 2 15 -4 15 -18 0 -73 58 -60
63 7 3 9 6 3 6 -5 0 -18 -6 -29 -14 -26 -20 -13 -49 19 -43 15 3 30 -1 40 -12
14 -16 12 -17 -34 -19 -55 -2 -75 16 -64 58 6 22 4 22 -79 19 -82 -3 -84 -2
-80 19 4 20 0 22 -49 25 -46 3 -54 6 -69 32 -9 17 -28 37 -44 45 -15 9 -32 27
-39 40 -7 14 -25 32 -40 40 -15 9 -34 27 -40 41 -7 14 -25 31 -40 38 -16 8
-31 21 -34 30 -3 10 -13 25 -22 35 -15 18 -16 18 -22 -5 -5 -16 -7 -10 -8 23
-1 40 -6 50 -41 83 -22 20 -40 46 -40 56 0 28 -28 25 -33 -2 -2 -13 -4 -2 -3
23 1 26 4 45 8 43 4 -2 9 0 12 5 3 5 -7 21 -24 34 -25 22 -30 33 -30 71 0 39
-3 46 -20 46 -17 0 -20 7 -20 40 0 22 5 40 10 40 6 0 10 14 10 30 0 17 5 48
12 69 l12 38 15 -31 c15 -29 15 -31 -1 -34z m1597 22 c8 -4 15 -15 15 -25 0
-18 -16 -19 -475 -19 -462 0 -475 1 -475 19 0 11 8 22 18 24 25 7 900 7 917 1z
m3183 -14 c495 0 502 0 502 -20 0 -20 -7 -20 -550 -20 -445 0 -550 2 -550 13
0 25 24 39 60 33 19 -3 261 -6 538 -6z m1116 1 c3 -5 -1 -14 -8 -20 -12 -10
-13 -8 -9 8 6 23 9 25 17 12z m-60 -35 c-9 -15 -19 -25 -21 -22 -5 5 30 56 35
51 2 -2 -4 -15 -14 -29z m36 -15 c0 -5 -7 -12 -16 -15 -14 -5 -15 -4 -4 9 14
17 20 19 20 6z m-4632 -10 c1 -1 3 -9 3 -18 1 -17 2 -17 6 0 4 15 20 17 163
17 171 0 170 0 170 -56 l0 -24 -470 0 -470 0 0 28 c0 52 -1 51 265 55 205 2
312 2 333 -2z m-620 -37 c-7 -15 -14 -21 -16 -15 -5 16 5 41 17 41 7 0 6 -10
-1 -26z m5196 18 c3 -5 -1 -9 -9 -9 -8 0 -15 4 -15 9 0 4 4 8 9 8 6 0 12 -4
15 -8z m-487 -74 c-4 -41 -12 -75 -19 -80 -7 -4 -272 -7 -588 -5 l-575 2 -5
45 c-3 25 -3 60 -1 78 l3 32 596 0 595 0 -6 -72z m-3613 -34 c13 -5 16 -23 16
-95 l0 -89 -592 2 -593 3 -3 87 c-3 83 -2 87 20 91 36 7 1134 8 1152 1z
m-1896 -79 c-3 -3 -9 2 -12 12 -6 14 -5 15 5 6 7 -7 10 -15 7 -18z m5922 11
c0 -3 -4 -8 -10 -11 -5 -3 -10 -1 -10 4 0 6 5 11 10 11 6 0 10 -2 10 -4z m-96
-55 c-15 -23 -29 -40 -31 -37 -5 5 50 85 55 81 2 -2 -9 -22 -24 -44z m-2512
-48 c161 -76 256 -227 259 -411 1 -91 -12 -146 -53 -224 -31 -59 -111 -145
-167 -180 l-33 -21 3 181 c3 197 1 206 -53 217 -23 5 -35 2 -54 -16 -13 -12
-24 -31 -24 -41 0 -10 -4 -18 -10 -18 -5 0 -10 5 -10 11 0 6 -21 32 -46 56
-36 36 -44 50 -38 67 13 39 16 124 5 145 -9 17 -21 21 -59 21 -26 0 -52 -4
-58 -8 -7 -5 -8 -34 -3 -92 7 -76 6 -88 -11 -110 -45 -57 -54 -74 -61 -122 -5
-28 -4 -83 0 -122 5 -39 6 -90 2 -114 l-6 -43 -46 33 c-184 133 -243 368 -145
573 42 88 88 141 161 184 99 60 146 72 270 69 99 -3 116 -6 177 -35z m2508 0
c0 -5 -7 -17 -16 -28 -13 -17 -16 -18 -24 -5 -13 20 -12 39 0 20 9 -13 12 -13
21 3 10 18 19 22 19 10z m-60 -71 c0 -5 -9 -19 -20 -32 -25 -28 -26 -18 -2 15
19 27 22 29 22 17z m-310 -57 c0 -8 -8 -15 -17 -14 -11 0 -13 3 -5 6 6 2 10 9
6 14 -3 5 0 9 5 9 6 0 11 -7 11 -15z m203 -40 c-10 -13 -22 -25 -26 -25 -4 0
0 11 10 25 10 13 22 25 26 25 4 0 0 -11 -10 -25z m25 -20 c-1 -14 -6 -25 -10
-25 -4 0 -8 -7 -8 -15 0 -8 5 -15 10 -15 6 0 10 -13 10 -30 0 -28 -2 -30 -40
-30 -22 0 -40 -5 -40 -11 0 -7 -17 -10 -45 -7 -30 2 -44 -1 -42 -8 1 -7 -18
-33 -41 -59 -34 -38 -46 -45 -53 -34 -6 10 -11 11 -16 3 -5 -6 -15 -14 -23
-18 -8 -3 -4 -4 8 -2 13 3 30 2 38 -1 25 -9 15 -23 -17 -23 -31 0 -65 -23 -55
-38 2 -4 -4 -8 -14 -8 -18 0 -18 2 -3 18 20 23 6 24 -19 1 -10 -9 -18 -12 -17
-7 0 12 128 119 141 119 6 0 13 6 16 14 3 9 0 11 -9 6 -8 -5 -11 -4 -6 1 5 5
16 9 25 9 9 0 17 5 17 10 1 6 20 30 44 55 24 25 50 55 58 68 11 16 22 21 35
16 14 -4 24 1 34 15 20 27 24 26 22 -4z m-2628 -105 c0 -23 -4 -30 -20 -30
-16 0 -20 7 -20 30 0 23 4 30 20 30 16 0 20 -7 20 -30z m-1985 -11 c4 -10 15
-19 25 -19 20 0 60 -44 60 -66 0 -8 7 -14 15 -14 13 0 14 4 5 20 -6 11 -7 20
-3 20 5 0 14 -9 21 -20 8 -14 9 -20 1 -20 -6 0 -9 -7 -5 -15 10 -27 -12 -16
-43 22 -16 20 -28 40 -25 45 3 4 -3 8 -14 8 -16 0 -72 50 -72 65 0 12 30 -9
35 -26z m4242 15 c-3 -3 -12 -4 -19 -1 -8 3 -5 6 6 6 11 1 17 -2 13 -5z
m-4202 -14 c3 -5 2 -10 -4 -10 -5 0 -13 5 -16 10 -3 6 -2 10 4 10 5 0 13 -4
16 -10z m3466 -40 c11 -6 19 -7 19 -1 0 5 28 9 62 8 40 0 55 -3 43 -8 -20 -7
-20 -8 0 -9 91 -6 130 -25 138 -66 2 -13 2 -23 0 -20 -3 3 -16 -6 -30 -18 -38
-36 -246 -135 -309 -148 -35 -7 -51 -14 -42 -19 9 -6 1 -13 -24 -24 -21 -8
-44 -15 -52 -15 -8 0 -16 -4 -18 -9 -4 -12 -336 -116 -433 -135 -44 -9 -100
-21 -125 -26 -71 -15 -206 -29 -325 -34 l-110 -4 30 21 c70 51 183 177 177
197 -3 8 0 10 7 6 6 -4 11 -1 11 6 0 32 22 88 32 82 6 -4 8 1 4 13 -6 19 -3
20 61 15 115 -10 319 3 371 23 7 2 21 -1 31 -7 15 -9 22 -8 34 4 9 9 14 18 11
20 -8 8 54 31 65 24 5 -4 12 -2 16 4 3 5 1 10 -6 10 -6 0 0 10 15 21 15 12 30
19 33 15 4 -3 1 -6 -5 -6 -6 0 -9 -7 -6 -15 4 -8 17 -15 31 -15 21 0 24 3 19
31 -3 20 -1 29 7 26 7 -2 12 -10 12 -17 0 -7 7 -15 15 -17 12 -4 12 -3 2 5
-26 18 -7 42 34 42 12 0 34 6 49 14 15 8 34 12 41 9 8 -3 20 -1 27 5 6 6 23
12 37 15 14 2 26 5 28 6 2 0 12 -4 23 -9z m-1529 -32 c8 -22 -4 -68 -18 -68
-10 0 -14 13 -14 40 0 28 4 40 14 40 8 0 16 -5 18 -12z m2558 2 c0 -5 -18 -10
-40 -10 -22 0 -40 5 -40 10 0 6 18 10 40 10 22 0 40 -4 40 -10z m-5289 -27
c-12 -20 -14 -14 -5 12 4 9 9 14 11 11 3 -2 0 -13 -6 -23z m4740 -28 c5 4 9 1
9 -4 0 -13 -10 -14 -29 -2 -8 6 -10 14 -5 22 7 11 9 10 12 -4 2 -9 8 -15 13
-12z m-3841 -21 c0 -22 -2 -25 -15 -14 -12 10 -13 16 -4 26 16 20 19 18 19
-12z m3080 16 c0 -5 -4 -10 -10 -10 -5 0 -10 5 -10 10 0 6 5 10 10 10 6 0 10
-4 10 -10z m940 -24 c0 -2 -7 -7 -16 -10 -8 -3 -12 -2 -9 4 6 10 25 14 25 6z
m-2215 -16 c3 -5 -3 -10 -14 -10 -14 0 -21 -6 -21 -20 0 -23 37 -28 60 -7 10
8 9 5 -2 -13 -29 -47 -108 -31 -91 18 14 39 53 57 68 32z m260 -29 c-15 -14
-47 -17 -52 -5 -2 7 4 19 13 29 15 15 18 15 33 1 9 -10 12 -19 6 -25z m1656
16 c-10 -9 -11 -8 -5 6 3 10 9 15 12 12 3 -3 0 -11 -7 -18z m-1818 -4 c8 -10
19 -30 22 -45 8 -30 45 -40 45 -13 0 17 25 20 35 5 3 -5 17 -10 31 -10 21 0
23 -2 12 -13 -7 -7 -29 -21 -48 -31 -35 -17 -35 -17 -55 8 -12 15 -24 26 -27
26 -4 0 -22 -14 -40 -31 -29 -27 -38 -30 -80 -26 l-48 4 -1 -36 c-1 -20 -4
-47 -8 -61 -6 -19 -9 -10 -14 39 -11 100 -10 116 7 102 18 -15 101 -5 134 15
23 15 30 48 12 59 -12 8 -13 25 -2 25 5 0 16 -8 25 -17z m2167 -28 c-7 -8 -17
-15 -23 -15 -6 0 -2 7 9 15 25 19 30 19 14 0z m16 -30 c-11 -8 -25 -15 -30
-15 -6 0 -2 7 8 15 11 8 25 15 30 15 6 0 2 -7 -8 -15z m-61 -5 c-3 -5 -1 -10
6 -10 7 0 10 -3 6 -6 -9 -9 -28 6 -22 17 4 5 8 9 11 9 3 0 2 -4 -1 -10z m-34
-24 c-11 -13 -6 -14 29 -11 23 2 39 1 36 -3 -4 -3 -29 -6 -57 -7 -50 -1 -50
-1 -27 17 28 21 34 23 19 4z m-97 -71 c-14 -11 -16 -15 -4 -15 12 0 11 -3 -3
-11 -29 -17 -43 2 -16 22 13 10 28 19 33 19 6 0 1 -7 -10 -15z m-3673 -54 c6
10 8 7 6 -8 -1 -17 -4 -19 -14 -11 -7 6 -13 16 -12 22 0 6 3 5 6 -3 5 -11 7
-11 14 0z m3606 -18 c3 -7 -6 -17 -19 -23 -22 -11 -22 -10 -4 4 31 25 12 29
-25 7 -27 -17 -30 -21 -14 -22 l20 0 -20 -8 c-43 -17 -45 2 -3 30 44 29 59 32
65 12z m-3777 -18 c7 -8 8 -15 2 -15 -5 0 -15 7 -22 15 -7 8 -8 15 -2 15 5 0
15 -7 22 -15z m220 -10 c7 -9 19 -14 27 -11 8 3 11 2 8 -3 -3 -5 5 -11 17 -14
13 -2 6 -4 -14 -4 -22 0 -35 4 -31 10 4 6 0 8 -10 4 -10 -3 -17 -5 -17 -3 0 3
-3 11 -6 20 -8 20 10 21 26 1z m3440 -30 c0 -3 -11 -10 -25 -15 -18 -7 -23
-14 -18 -27 4 -11 3 -14 -3 -8 -5 5 -13 13 -17 16 -5 3 7 13 25 22 37 19 38
19 38 12z m30 -19 c0 -3 -4 -8 -10 -11 -5 -3 -10 -1 -10 4 0 6 5 11 10 11 6 0
10 -2 10 -4z m-1692 -59 c-5 -14 -98 -23 -98 -8 0 12 16 17 63 19 27 1 37 -2
35 -11z m1502 -14 c-8 -3 -24 -10 -35 -15 -20 -9 -20 -9 -1 6 11 9 27 16 35
15 14 0 14 -1 1 -6z m15 -33 c3 -6 -1 -7 -9 -4 -18 7 -21 14 -7 14 6 0 13 -4
16 -10z m-3777 -207 c41 -8 113 -30 160 -50 83 -33 187 -91 179 -100 -2 -2
-58 2 -123 8 -66 6 -163 9 -216 6 -64 -3 -98 -2 -98 5 0 10 -77 6 -130 -7 -20
-5 -45 6 -118 54 -50 33 -92 65 -92 70 0 8 116 28 205 34 63 5 153 -3 233 -20z
m4615 3 c28 -6 52 -16 54 -22 4 -13 -102 -84 -160 -108 -30 -12 -48 -14 -80
-6 -56 13 -137 13 -117 0 23 -14 6 -22 -24 -10 -35 13 -159 13 -285 -1 -56 -6
-106 -9 -113 -7 -14 5 96 68 172 98 179 72 388 93 553 56z m2251 -661 c0 -70
-4 -110 -15 -133 l-16 -33 -19 58 c-23 71 -23 151 1 224 l18 54 16 -35 c10
-24 15 -68 15 -135z m-9429 -50 c21 -77 17 -147 -13 -215 l-19 -45 -17 57 c-9
31 -16 83 -16 115 0 63 26 167 39 159 4 -3 16 -35 26 -71z m4710 -627 c0 -57
4 -114 9 -128 15 -46 -62 38 -80 87 -16 40 -15 44 1 70 21 33 56 73 64 73 4 0
6 -46 6 -102z m-4740 -173 c29 -28 31 -42 8 -67 -27 -30 -61 -23 -80 18 -17
35 -17 36 7 55 32 24 36 24 65 -6z m9429 -107 c28 -78 39 -87 110 -90 78 -4
82 -25 11 -51 -27 -10 -56 -25 -62 -34 -7 -10 -13 -45 -13 -81 0 -78 -16 -79
-42 -3 -26 78 -30 81 -109 81 -89 0 -91 18 -6 51 l62 24 3 55 c5 113 19 127
46 48z m-9421 -245 c26 -25 47 -49 47 -52 0 -3 -23 -26 -51 -50 l-51 -44 -51
52 -52 52 50 44 c28 25 52 45 55 45 3 0 27 -21 53 -47z m7584 -5 c18 -18 33
-37 33 -42 0 -6 -16 -24 -36 -40 l-36 -28 -40 38 -39 39 38 32 c21 18 40 33
43 33 2 0 19 -14 37 -32z m-920 -220 c-3 -8 -6 -5 -6 6 -1 11 2 17 5 13 3 -3
4 -12 1 -19z m-3560 -320 c-3 -8 -6 -5 -6 6 -1 11 2 17 5 13 3 -3 4 -12 1 -19z"/>
<path d="M5077 9683 c-4 -3 -7 -20 -7 -37 0 -28 -5 -33 -48 -48 -26 -10 -61
-31 -77 -48 -25 -26 -30 -40 -33 -95 -4 -64 -4 -66 31 -99 26 -25 57 -39 115
-55 43 -11 83 -21 88 -21 20 0 54 -41 54 -64 0 -32 -40 -56 -93 -56 -48 0 -91
26 -102 60 -4 14 -15 20 -35 20 -48 0 -60 -9 -60 -46 0 -47 49 -100 109 -118
31 -9 47 -19 49 -32 9 -62 12 -65 45 -62 23 2 33 9 35 23 8 55 13 63 41 68 44
9 99 63 111 108 26 97 -28 162 -166 199 -91 24 -114 39 -114 74 0 48 74 79
130 56 16 -7 30 -15 30 -19 0 -3 9 -17 19 -30 17 -22 21 -23 54 -12 45 15 52
35 29 80 -13 25 -34 43 -70 61 -34 16 -52 31 -52 43 0 34 -20 57 -49 57 -15 0
-31 -3 -34 -7z"/>
<path d="M2001 9330 c-7 -21 -22 -36 -46 -46 -105 -43 -155 -136 -155 -286 0
-88 -1 -90 -18 -75 -10 10 -25 17 -34 17 -18 0 -83 -136 -100 -210 l-12 -51
60 -60 c74 -75 83 -80 125 -69 58 15 180 17 175 4 -7 -17 20 -38 39 -30 8 3
15 14 15 25 0 16 6 18 38 15 115 -13 228 -21 238 -17 25 9 94 138 94 175 0 47
-19 62 -75 56 -42 -5 -45 -4 -45 19 0 16 -9 29 -28 40 l-29 16 20 51 c15 40
18 69 15 136 -7 141 -52 208 -169 250 -45 15 -55 23 -57 44 -5 37 -37 34 -51
-4z m26 -22 c-3 -7 -5 -2 -5 12 0 14 2 19 5 13 2 -7 2 -19 0 -25z m98 -68 c60
-28 72 -42 100 -104 26 -58 32 -124 16 -155 -14 -25 -108 -17 -183 16 l-58 26
-57 -25 c-32 -14 -66 -28 -75 -31 -21 -7 -24 -27 -4 -27 24 0 99 30 118 46 16
15 20 14 48 -9 18 -16 48 -28 78 -32 72 -10 77 -12 61 -32 -41 -49 -157 -68
-201 -33 -24 19 -105 43 -118 35 -7 -5 -7 -7 -16 92 -6 66 -4 77 24 137 40 85
82 115 167 115 39 0 74 -6 100 -19z m-316 -382 c22 -23 38 -46 35 -50 -3 -4
-31 -10 -63 -14 -46 -5 -60 -11 -64 -25 -3 -11 -1 -19 3 -19 5 0 11 -8 14 -18
4 -10 30 -44 60 -76 l53 -57 -23 -16 c-22 -14 -25 -13 -61 22 -21 20 -50 44
-65 53 -16 9 -28 25 -28 35 0 25 80 207 90 207 5 0 27 -19 49 -42z m436 -128
c0 -49 -2 -55 -25 -61 -47 -13 -375 -10 -392 4 -24 19 -50 64 -40 71 21 13
141 17 163 5 13 -6 53 -12 89 -12 52 0 77 6 115 26 28 14 59 25 70 24 17 -2
20 -9 20 -57z m-319 -101 c8 -14 -14 -29 -33 -22 -7 3 -13 11 -13 19 0 17 36
19 46 3z m164 -19 c0 -5 -18 -10 -39 -10 -22 0 -46 -3 -55 -6 -11 -4 -16 -1
-16 10 0 13 11 16 55 16 30 0 55 -4 55 -10z"/>
<path d="M7892 9250 c-12 -5 -27 -22 -33 -37 -13 -35 -2 -423 12 -438 13 -13
609 -19 629 -5 12 8 16 45 18 215 3 214 4 215 46 199 14 -5 16 -35 16 -229 0
-222 0 -223 -22 -229 -36 -9 -711 -7 -727 3 -10 7 -13 53 -13 219 -1 168 -3
209 -14 205 -18 -7 -27 -109 -23 -281 3 -108 8 -154 18 -166 13 -15 48 -16
397 -14 353 3 385 4 401 21 16 16 18 39 15 249 -2 241 -5 258 -46 258 -11 0
-34 9 -51 20 -28 19 -47 20 -315 19 -157 0 -295 -4 -308 -9z m598 -240 l0
-210 -294 0 c-259 0 -295 2 -300 16 -8 21 -8 389 1 397 3 4 138 7 300 7 l293
0 0 -210z"/>
<path d="M7930 9146 c0 -36 12 -46 59 -46 62 0 88 8 94 30 4 14 -4 19 -41 24
-75 10 -112 8 -112 -8z"/>
<path d="M8183 9133 c26 -2 68 -2 95 0 26 2 4 3 -48 3 -52 0 -74 -1 -47 -3z"/>
<path d="M7930 9015 c0 -25 1 -26 66 -23 59 3 68 6 75 26 8 22 7 22 -66 22
-74 0 -75 0 -75 -25z"/>
<path d="M7940 8911 c0 -5 3 -16 6 -25 8 -20 70 -21 90 -2 26 27 15 36 -41 36
-30 0 -55 -4 -55 -9z"/>
<path d="M8114 8907 c-3 -9 -3 -21 1 -27 10 -16 55 -12 62 5 7 19 5 22 -29 30
-21 5 -29 3 -34 -8z"/>
<path d="M636 9114 c-20 -20 -17 -48 6 -52 24 -5 39 29 23 51 -12 17 -14 17
-29 1z"/>
<path d="M3213 8779 c-161 -10 -153 -5 -153 -98 0 -43 7 -100 15 -126 13 -46
13 -50 -5 -62 -54 -38 -90 -154 -70 -231 16 -65 50 -106 116 -138 119 -58 272
-15 328 94 42 81 24 190 -40 255 -36 35 -37 38 -26 74 6 21 14 77 17 125 l7
87 -28 6 c-16 3 -36 9 -44 13 -8 4 -61 4 -117 1z m147 -95 c0 -68 -18 -150
-36 -169 -8 -8 -34 -20 -57 -26 -52 -14 -111 3 -139 41 -21 29 -43 149 -34
185 6 23 11 24 99 27 50 2 109 1 130 -1 l37 -3 0 -54z m-207 -219 c47 -19 108
-19 155 1 l37 15 32 -37 c31 -35 53 -87 53 -127 0 -55 -60 -138 -119 -163 -67
-28 -177 -9 -230 39 -66 61 -66 172 0 256 28 35 27 35 72 16z"/>
<path d="M3140 8614 c0 -10 7 -14 22 -12 32 5 35 28 4 28 -17 0 -26 -5 -26
-16z"/>
<path d="M3271 8617 c-8 -11 -5 -14 19 -14 18 0 30 6 30 14 0 7 -8 13 -19 13
-10 0 -24 -6 -30 -13z"/>
<path d="M3212 8574 c-29 -20 -19 -34 24 -34 38 0 43 9 16 33 -16 15 -20 15
-40 1z"/>
<path d="M3157 8294 c-9 -10 2 -24 19 -24 8 0 14 7 14 15 0 15 -21 21 -33 9z"/>
<path d="M3272 8284 c4 -21 22 -23 26 -1 2 10 -3 17 -13 17 -10 0 -15 -6 -13
-16z"/>
<path d="M6875 8781 c-76 -39 -96 -117 -50 -190 13 -22 34 -46 45 -54 21 -15
21 -15 -12 -26 -18 -6 -44 -20 -58 -31 l-25 -19 -41 46 c-41 48 -71 53 -58 10
8 -27 67 -106 128 -172 48 -52 60 -84 54 -150 -3 -38 -2 -40 37 -53 47 -16
189 -11 225 8 23 12 23 14 16 140 l-6 128 33 21 c18 11 43 31 56 45 24 25 24
25 51 6 48 -34 76 -35 105 -5 47 52 23 126 -48 147 -23 6 -52 22 -64 35 -35
37 -47 29 -71 -46 l-22 -68 -47 -7 c-25 -3 -61 -6 -80 -6 l-34 0 20 26 c44 56
36 146 -17 197 -39 37 -86 43 -137 18z m123 -47 c13 -15 22 -39 23 -62 2 -55
-1 -65 -24 -89 -32 -35 -87 -31 -126 8 -41 41 -47 70 -24 116 32 67 104 80
151 27z m257 -111 c-3 -16 -17 -52 -30 -81 -21 -46 -31 -56 -74 -75 l-51 -22
0 -63 c0 -65 -21 -132 -40 -132 -7 0 -9 8 -5 21 5 15 4 19 -4 15 -6 -4 -11
-16 -11 -26 0 -10 -4 -22 -10 -25 -5 -3 -10 -17 -10 -31 0 -20 -5 -24 -27 -24
-16 0 -44 -3 -64 -6 l-36 -6 -5 90 c-4 99 -19 132 -69 160 -36 21 -36 28 1 47
38 20 50 19 50 -3 0 -22 49 -52 87 -52 15 0 43 9 61 20 27 16 32 26 32 56 l0
36 61 -4 60 -4 24 40 c13 23 27 53 30 69 4 15 14 27 22 27 11 0 14 -7 8 -27z
m75 -34 c0 -6 -7 -9 -15 -5 -9 3 -15 0 -15 -8 0 -7 -7 -19 -15 -26 -12 -10
-15 -10 -15 3 0 9 5 27 11 41 10 21 15 23 30 15 11 -5 19 -15 19 -20z m25 -78
c-17 -17 -17 -13 2 37 6 16 6 16 11 -2 2 -10 -4 -26 -13 -35z m-25 -1 c0 -5
-2 -10 -4 -10 -3 0 -8 5 -11 10 -3 6 -1 10 4 10 6 0 11 -4 11 -10z m-308 -25
c-4 -25 -46 -55 -76 -55 -19 0 -46 27 -46 46 0 10 13 14 45 14 25 0 45 5 45
10 0 6 8 10 19 10 14 0 17 -6 13 -25z m-182 -139 c0 -15 -28 15 -50 52 l-20
37 35 -40 c19 -22 35 -44 35 -49z"/>
<path d="M6890 8700 c-8 -14 -8 -26 -2 -32 6 -6 12 0 16 17 4 15 5 29 2 32 -2
3 -10 -5 -16 -17z"/>
<path d="M6958 8709 c-26 -14 -22 -29 7 -29 18 0 25 5 25 20 0 22 -7 24 -32 9z"/>
<path d="M6910 8625 c17 -20 54 -19 71 2 13 15 12 15 -8 4 -16 -8 -29 -9 -42
-1 -28 14 -36 12 -21 -5z"/>
<path d="M5917 8408 c-13 -52 18 -121 82 -182 24 -23 28 -33 21 -47 -15 -26
-12 -69 3 -69 8 0 19 11 25 25 6 14 15 25 20 25 5 0 45 -24 89 -53 75 -49 103
-59 103 -36 0 17 -43 54 -110 94 -144 86 -190 138 -190 217 0 40 -3 48 -19 48
-11 0 -21 -9 -24 -22z"/>
<path d="M6300 8020 c0 -7 7 -37 16 -67 25 -86 0 -187 -48 -196 -22 -3 -21 -4
7 -16 27 -11 32 -10 52 13 47 55 56 190 17 243 -22 30 -44 41 -44 23z"/>
<path d="M4702 7978 c-8 -8 -12 -58 -12 -159 0 -107 -3 -150 -12 -155 -25 -15
37 -22 210 -23 l172 -1 0 130 0 130 -150 0 -150 0 0 -37 c0 -21 3 -68 6 -104
l7 -67 123 4 c106 4 124 2 124 -11 0 -13 -22 -15 -144 -15 l-144 0 -4 133 c-3
72 -3 135 -1 140 5 8 648 9 681 1 21 -6 22 -10 22 -140 l0 -134 -145 0 -145 0
-1 58 c-1 31 -2 75 -3 97 l-1 40 105 -4 c58 -2 106 -4 108 -6 1 -1 0 -8 -3
-16 -4 -11 -25 -13 -91 -11 -53 2 -91 -1 -97 -7 -8 -8 15 -12 79 -13 75 -2 79
-2 24 -5 -81 -4 -113 -11 -105 -23 3 -6 44 -10 91 -10 79 0 84 1 84 22 0 28 6
20 13 -18 l6 -31 -100 -8 c-75 -5 -99 -10 -99 -21 0 -11 16 -14 68 -14 37 0
91 -3 120 -6 l52 -7 0 107 0 106 -150 0 -150 0 0 -129 0 -129 33 -4 c17 -2
103 -2 190 0 l157 4 0 164 0 164 -26 10 c-39 15 -727 13 -742 -2z m318 -183
l0 -76 -107 3 -106 3 -3 67 c-3 78 -12 72 129 77 l87 2 0 -76z"/>
<path d="M4820 7816 c0 -11 20 -14 90 -15 74 -1 90 2 90 14 0 12 -17 15 -90
15 -71 0 -90 -3 -90 -14z"/>
<path d="M4820 7770 c0 -6 35 -10 85 -10 50 0 85 4 85 10 0 6 -35 10 -85 10
-50 0 -85 -4 -85 -10z"/>
<path d="M3673 7783 c-18 -9 -33 -20 -33 -24 0 -14 30 -18 60 -7 42 14 107 4
143 -22 20 -15 32 -19 39 -12 17 17 2 38 -44 61 -52 25 -119 26 -165 4z"/>
<path d="M3535 7690 c-10 -11 -22 -43 -26 -72 -6 -36 -16 -58 -30 -69 -21 -16
-20 -16 32 -11 64 6 66 7 46 27 -16 16 -14 71 4 107 21 39 4 51 -26 18z"/>
<path d="M3978 7580 c-26 -5 -52 -11 -57 -15 -7 -4 -11 -86 -11 -235 0 -223 1
-230 22 -250 20 -19 34 -20 234 -20 282 0 258 -22 262 237 4 229 -2 266 -50
282 -35 13 -327 13 -400 1z m395 -49 c15 -12 17 -39 17 -206 0 -107 -3 -200
-6 -209 -5 -14 -34 -16 -213 -16 -148 0 -210 3 -219 12 -9 9 -12 71 -12 215 0
202 0 204 23 213 36 15 391 8 410 -9z"/>
<path d="M3990 7460 c0 -19 7 -20 175 -20 168 0 175 1 175 20 0 19 -7 20 -175
20 -168 0 -175 -1 -175 -20z"/>
<path d="M4013 7384 c-7 -3 -13 -13 -13 -23 0 -15 15 -17 159 -17 113 1 164 5
172 13 7 7 10 15 7 18 -8 8 -309 16 -325 9z"/>
<path d="M4041 7311 c-70 -10 -65 -31 8 -31 54 0 61 2 61 20 0 11 -6 19 -12
18 -7 0 -33 -4 -57 -7z"/>
<path d="M4250 7295 c0 -20 23 -29 55 -21 42 11 31 36 -15 36 -29 0 -40 -4
-40 -15z"/>
<path d="M3997 7223 c-21 -21 -2 -31 71 -36 81 -6 97 -1 86 26 -5 14 -20 17
-78 17 -40 0 -76 -3 -79 -7z"/>
<path d="M4258 7223 c-16 -2 -28 -9 -28 -14 0 -12 44 -29 76 -29 19 0 24 5 24
25 0 26 -7 28 -72 18z"/>
<path d="M4630 7581 l-55 -6 -3 -108 c-3 -108 -3 -108 27 -137 l29 -30 464 0
c453 0 465 1 486 20 12 11 25 32 28 46 6 24 -3 195 -11 202 -2 2 -21 8 -42 13
-41 9 -833 9 -923 0z m930 -51 c13 -20 13 -132 0 -164 l-10 -26 -450 0 c-292
0 -458 4 -471 10 -17 9 -19 22 -19 106 l0 95 470 -3 c406 -3 472 -5 480 -18z"/>
<path d="M4700 7454 l0 -45 38 3 c33 3 37 6 40 33 4 33 -18 55 -55 55 -21 0
-23 -5 -23 -46z m57 -13 c2 -15 -2 -18 -17 -14 -19 5 -27 33 -13 46 9 10 26
-9 30 -32z"/>
<path d="M4884 7489 c-7 -13 7 -79 17 -79 5 0 9 14 9 30 0 17 4 30 9 30 13 0
24 -37 15 -51 -4 -7 -1 -10 7 -7 8 3 14 19 14 38 0 31 -4 35 -33 41 -18 4 -35
3 -38 -2z"/>
<path d="M4980 7480 c-21 -40 15 -85 47 -58 13 10 12 13 -6 20 -25 9 -28 28
-5 28 20 0 13 24 -9 28 -8 2 -21 -6 -27 -18z"/>
<path d="M5047 7486 c-7 -18 21 -78 33 -71 4 3 5 17 3 32 -4 25 -3 26 10 11
10 -13 16 -15 25 -6 7 7 12 8 12 2 0 -6 6 -18 13 -28 16 -22 45 -12 58 21 10
27 29 22 29 -8 0 -11 7 -19 16 -19 12 0 15 6 10 23 -3 12 -6 28 -6 35 0 7 -8
12 -17 10 -10 -1 -24 1 -30 5 -21 13 -33 -2 -26 -33 3 -19 1 -30 -6 -30 -6 0
-11 17 -11 38 -1 35 -2 36 -15 18 -9 -12 -15 -15 -15 -7 0 9 -11 12 -35 9 -19
-2 -36 1 -38 6 -2 6 -6 2 -10 -8z"/>
<path d="M5275 7491 c-9 -16 7 -71 21 -71 20 0 19 66 -1 73 -8 4 -17 2 -20 -2z"/>
<path d="M5353 7492 c-23 -3 -30 -31 -17 -66 11 -28 26 -17 19 14 -4 17 -2 30
3 30 12 0 24 -29 16 -41 -3 -5 2 -9 11 -9 13 0 15 6 10 33 -9 39 -14 44 -42
39z"/>
<path d="M4802 7453 c2 -29 8 -39 23 -41 11 -1 26 2 34 7 24 15 -5 71 -36 71
-22 0 -24 -4 -21 -37z m38 -9 c0 -8 -4 -14 -10 -14 -5 0 -10 9 -10 21 0 11 5
17 10 14 6 -3 10 -13 10 -21z"/>
<path d="M5412 7458 c4 -40 35 -49 61 -20 26 28 12 52 -30 52 -33 0 -34 -1
-31 -32z m46 0 c-2 -6 -10 -14 -16 -16 -7 -2 -10 2 -6 12 7 18 28 22 22 4z"/>
<path d="M5767 7562 c-15 -16 -17 -48 -17 -241 l0 -222 25 -25 26 -26 197 5
c108 3 205 8 214 12 31 12 38 64 38 271 0 191 -1 205 -20 224 -19 19 -33 20
-233 20 -195 0 -215 -2 -230 -18z m444 -32 c16 -24 7 -403 -10 -423 -12 -15
-39 -17 -207 -17 l-194 0 -11 28 c-7 17 -9 100 -7 220 2 158 6 195 18 203 9 6
92 8 208 7 158 -3 195 -6 203 -18z"/>
<path d="M5840 7331 l0 -161 50 0 c47 0 50 2 50 25 0 14 -6 35 -12 46 -11 18
-10 23 10 39 13 11 21 24 18 29 -8 12 3 41 16 41 5 0 7 -13 3 -29 -5 -24 -2
-32 14 -41 21 -11 21 -9 21 100 l0 110 -55 0 c-39 0 -55 -4 -54 -12 5 -38 -2
-98 -11 -93 -5 3 -8 26 -6 50 2 25 0 45 -5 45 -4 0 -14 3 -23 6 -14 5 -16 -12
-16 -155z m138 87 c-2 -43 -7 -53 -23 -57 -16 -3 -17 -1 -6 12 9 12 10 21 2
36 -18 33 -14 61 10 61 18 0 20 -5 17 -52z m-98 -123 c0 -25 -4 -45 -10 -45
-11 0 -14 73 -3 83 11 12 13 8 13 -38z"/>
<path d="M6065 7480 c-3 -5 -3 -19 0 -30 6 -18 8 -18 21 -5 18 17 40 20 49 5
11 -18 26 -10 23 13 -2 18 -10 23 -45 25 -22 2 -44 -2 -48 -8z"/>
<path d="M6071 7393 c-1 -18 4 -33 9 -33 12 0 12 17 0 45 -7 17 -9 15 -9 -12z"/>
<path d="M6122 7383 c5 -26 38 -29 38 -4 0 15 -6 21 -21 21 -14 0 -19 -5 -17
-17z"/>
<path d="M6120 7305 c0 -11 -7 -14 -25 -9 -24 6 -25 5 -24 -46 2 -59 19 -83
58 -78 20 2 27 9 29 31 2 19 -1 27 -12 27 -8 0 -16 -5 -18 -12 -6 -18 -38 -1
-38 21 0 25 31 37 42 16 16 -27 28 -16 28 25 0 33 -3 40 -20 40 -11 0 -20 -7
-20 -15z"/>
<path d="M5970 7206 c0 -30 13 -40 41 -31 31 10 21 49 -13 53 -24 3 -28 0 -28
-22z"/>
<path d="M6405 7145 c59 -36 195 -141 195 -151 0 -3 -23 -29 -51 -57 -104
-105 -148 -210 -149 -348 0 -141 54 -264 159 -361 95 -87 200 -128 331 -128
264 0 468 176 502 434 10 72 8 91 -11 166 -40 161 -157 291 -312 345 -142 49
-270 43 -391 -20 -27 -13 -48 -20 -48 -15 0 13 -132 107 -197 140 -81 41 -99
38 -28 -5z m581 -116 c230 -42 393 -270 356 -496 -40 -239 -244 -397 -490
-380 -162 12 -302 110 -375 264 -30 64 -32 75 -32 178 0 102 3 115 32 177 57
123 162 210 298 249 71 21 130 23 211 8z"/>
<path d="M6610 6793 c-55 -6 -91 -24 -101 -50 -14 -37 -11 -139 4 -151 26 -22
138 -32 236 -22 64 7 98 7 105 0 7 -7 3 -10 -11 -10 -52 0 -33 -45 23 -56 52
-10 32 -18 -44 -19 -37 0 -82 -7 -99 -14 -28 -11 -31 -17 -37 -74 -6 -57 -5
-64 18 -83 28 -25 145 -49 160 -34 11 11 73 12 131 2 l40 -8 -65 -16 c-60 -15
-62 -16 -25 -17 48 0 151 21 183 38 20 11 22 19 22 90 0 106 -12 117 -124 115
l-81 -2 62 28 62 29 -6 58 c-11 122 -36 168 -69 127 -8 -11 -17 -14 -20 -9
-25 55 -31 60 -84 72 -52 11 -205 14 -280 6z m175 -33 l40 -2 -35 -9 c-19 -5
-59 -6 -88 -3 -29 2 -68 2 -87 -2 -67 -12 -23 -24 91 -24 101 0 116 2 134 20
26 26 66 26 80 0 9 -17 7 -22 -12 -29 -68 -26 -351 -24 -361 2 -2 7 -1 22 4
34 8 22 21 23 234 13z m235 -69 c5 -11 10 -28 9 -38 0 -15 -2 -15 -9 3 -5 12
-13 25 -19 29 -6 3 -11 10 -11 16 0 16 19 10 30 -10z m-60 -21 c0 -13 -20 -13
-40 0 -12 8 -9 10 13 10 15 0 27 -4 27 -10z m-162 -26 c-12 -12 -26 -13 -84
-4 -38 5 -88 10 -111 10 -23 0 -44 3 -46 8 -3 4 54 6 125 4 115 -3 129 -5 116
-18z m102 22 c0 -3 -4 -8 -10 -11 -5 -3 -10 -1 -10 4 0 6 5 11 10 11 6 0 10
-2 10 -4z m-60 -31 c-7 -9 -15 -13 -17 -11 -7 7 7 26 19 26 6 0 6 -6 -2 -15z
m110 -16 c0 -5 -13 -9 -30 -9 -35 0 -41 17 -7 22 26 5 37 1 37 -13z m-265 -5
c98 -7 106 -9 71 -17 -43 -11 -185 5 -214 23 -14 9 -13 10 8 6 14 -3 75 -8
135 -12z m339 0 c30 -12 17 -42 -30 -68 -30 -17 -44 -21 -41 -12 3 8 -1 20 -9
26 -17 15 -18 30 -3 30 6 0 13 -9 16 -20 6 -24 12 -25 41 -4 25 17 31 49 7 40
-8 -3 -15 -1 -15 4 0 11 11 13 34 4z m-104 -64 c0 -5 -9 -10 -20 -10 -11 0
-20 5 -20 10 0 6 9 10 20 10 11 0 20 -4 20 -10z m194 -117 c8 -19 -3 -41 -22
-47 -24 -8 -228 -26 -284 -26 -27 0 -48 4 -48 9 0 4 53 11 118 15 139 9 184
17 190 35 4 11 -5 13 -44 7 -27 -3 -104 -9 -171 -13 -117 -6 -123 -5 -123 13
0 18 10 19 190 20 148 0 190 -2 194 -13z m-216 -97 c81 0 165 3 187 8 38 7 39
7 22 -11 -15 -16 -36 -18 -175 -18 -173 0 -206 5 -222 36 -11 20 -11 20 15 3
22 -14 52 -17 173 -18z m169 -52 c-3 -3 -12 -4 -19 -1 -8 3 -5 6 6 6 11 1 17
-2 13 -5z"/>
<path d="M7148 6772 c-30 -18 -35 -45 -16 -87 12 -27 36 -33 56 -13 19 19 14
30 -7 16 -14 -9 -22 -8 -34 3 -13 12 -13 18 -1 41 17 33 35 40 51 19 11 -14
12 -14 13 0 0 15 -18 39 -29 39 -4 0 -18 -8 -33 -18z"/>
<path d="M7162 6734 c-13 -14 -8 -34 8 -34 5 0 7 7 4 15 -4 8 -1 15 5 15 6 0
11 5 11 10 0 14 -13 12 -28 -6z"/>
<path d="M7100 6585 c0 -9 9 -15 25 -15 16 0 25 6 25 15 0 9 -9 15 -25 15 -16
0 -25 -6 -25 -15z"/>
<path d="M3260 7080 c-142 -26 -257 -106 -341 -238 -96 -152 -94 -371 5 -527
37 -56 113 -128 166 -155 99 -50 239 -64 373 -35 209 44 377 253 377 469 0 62
-35 188 -67 244 -71 122 -212 218 -354 241 -72 12 -94 12 -159 1z m266 -74
c98 -46 166 -111 209 -200 58 -118 70 -233 35 -336 -40 -119 -104 -196 -210
-254 l-50 -27 0 143 c0 79 -5 160 -10 180 -12 43 -61 78 -107 78 -43 0 -46 9
-13 46 16 19 32 51 36 71 4 21 14 43 22 49 14 10 14 16 -1 55 -52 134 -133
171 -254 115 -45 -22 -53 -30 -63 -66 -17 -62 18 -195 60 -231 l30 -25 -55
-18 c-80 -25 -97 -62 -103 -218 -2 -65 -8 -118 -12 -118 -12 0 -66 65 -93 112
-73 125 -76 314 -7 448 34 66 126 157 193 190 82 40 135 50 236 45 70 -4 96
-10 157 -39z m-254 -194 c29 -12 70 -3 83 17 14 23 23 8 30 -48 11 -92 -27
-152 -104 -167 -22 -5 -36 1 -63 25 -52 46 -64 81 -50 149 14 64 28 78 57 53
11 -9 32 -22 47 -29z m55 -254 c79 2 82 1 107 -29 26 -31 34 -59 17 -59 -6 0
-13 5 -16 10 -3 6 -13 10 -22 10 -13 0 -15 -10 -11 -53 3 -36 0 -57 -9 -65 -8
-9 -13 -38 -13 -87 0 -87 4 -84 -121 -84 l-86 0 -7 132 c-5 96 -10 136 -21
146 -13 14 -15 8 -15 -48 0 -54 -2 -62 -17 -59 -15 3 -18 14 -16 61 1 31 8 69
15 84 15 32 71 56 108 46 14 -4 62 -6 107 -5z m143 -250 c0 -42 -21 -78 -47
-78 -8 0 -13 12 -13 34 0 51 16 86 40 86 17 0 20 -6 20 -42z m-356 26 c12 -5
16 -21 16 -65 0 -32 -4 -59 -9 -59 -24 0 -41 34 -41 81 0 49 4 54 34 43z m351
-143 c7 -12 -26 -31 -54 -31 -24 0 -27 10 -9 28 14 14 54 16 63 3z m-235 -17
c0 -2 -9 -4 -20 -4 -11 0 -20 4 -20 9 0 5 9 7 20 4 11 -3 20 -7 20 -9z"/>
<path d="M3480 6679 c0 -11 7 -19 18 -20 56 -4 57 -4 60 -34 1 -16 5 -45 8
-63 l5 -32 56 2 c53 3 57 1 64 -22 l7 -25 1 26 c1 37 -21 53 -68 46 l-39 -5
-4 54 c-6 65 -13 74 -67 84 -36 6 -41 5 -41 -11z"/>
<path d="M3606 6428 c-22 -31 -9 -41 25 -21 33 20 36 28 13 37 -22 8 -21 9
-38 -16z"/>
<path d="M3326 6773 c-10 -10 -7 -53 4 -53 8 0 30 31 30 43 0 8 -28 16 -34 10z"/>
<path d="M3200 6750 c0 -23 10 -26 28 -8 18 18 15 28 -8 28 -13 0 -20 -7 -20
-20z"/>
<path d="M3256 6686 c-18 -8 -24 -16 -17 -20 16 -10 51 3 51 20 0 8 -1 14 -2
13 -2 0 -16 -6 -32 -13z"/>
<path d="M5083 6938 c-17 -18 -60 -76 -97 -128 -36 -52 -93 -133 -127 -180
-34 -47 -123 -173 -199 -280 -150 -215 -265 -377 -364 -516 -90 -125 -95 -138
-69 -172 11 -15 43 -36 71 -47 28 -11 100 -51 159 -88 59 -38 233 -147 386
-243 l277 -176 253 158 c138 86 312 195 384 241 73 46 146 86 162 89 38 8 111
74 111 101 0 12 -40 76 -88 144 -155 216 -244 342 -362 510 -282 401 -444 619
-459 619 -4 0 -21 -15 -38 -32z m324 -415 c155 -219 313 -441 350 -493 172
-241 213 -310 184 -310 -9 0 -124 154 -321 433 -225 316 -482 673 -495 686
-11 11 -17 6 -39 -32 -15 -24 -50 -76 -79 -115 -28 -40 -75 -104 -103 -144
-174 -246 -467 -657 -526 -735 -62 -84 -99 -114 -97 -80 0 6 48 80 107 164 59
84 168 239 242 345 74 106 168 240 210 298 42 58 120 167 174 243 53 75 100
137 104 137 4 0 134 -179 289 -397z m31 -398 c-113 -92 -117 -94 -128 -80 -10
12 -2 24 42 64 49 45 54 48 71 33 9 -8 16 -16 15 -17z m-623 -36 c30 -23 55
-45 55 -49 0 -4 -8 -14 -17 -22 -17 -15 -22 -12 -72 33 -46 41 -52 51 -41 64
7 8 14 15 16 15 2 0 28 -19 59 -41z m724 -277 c44 -32 64 -69 68 -124 5 -65
-17 -112 -66 -145 -69 -46 -181 -18 -215 53 -23 49 -21 131 4 172 41 66 148
89 209 44z m-645 4 c72 -30 107 -159 60 -223 -43 -57 -68 -68 -162 -68 l-87 0
-3 153 -3 152 81 0 c46 0 95 -6 114 -14z m331 -93 c59 -136 76 -183 69 -194
-3 -5 -19 -9 -35 -9 -25 0 -33 6 -45 35 -15 37 -21 39 -97 29 -40 -6 -47 -10
-52 -35 -6 -25 -11 -29 -41 -29 -23 0 -34 5 -34 14 0 8 18 59 39 113 79 199
70 183 111 183 l38 0 47 -107z"/>
<path d="M5410 5750 c-55 -55 -26 -160 45 -160 74 0 109 107 51 157 -33 28
-70 29 -96 3z"/>
<path d="M4770 5675 l0 -85 40 0 c55 0 90 34 90 88 0 55 -28 82 -85 82 l-45 0
0 -85z"/>
<path d="M5126 5708 c-22 -51 -20 -58 14 -58 34 0 38 16 16 65 l-14 30 -16
-37z"/>
<path d="M3490 6098 c-97 -37 -110 -40 -173 -34 -62 6 -74 4 -130 -24 -34 -16
-67 -30 -73 -30 -7 0 -34 18 -60 40 -27 22 -68 48 -91 56 l-43 17 -52 -42
c-29 -22 -99 -79 -156 -126 -56 -47 -113 -87 -127 -91 -26 -6 -102 31 -268
133 -49 30 -101 59 -115 65 -34 14 -193 39 -204 32 -22 -14 -5 -33 35 -39 120
-18 202 -47 272 -99 17 -13 74 -49 129 -80 143 -84 153 -81 381 108 97 81 109
88 139 82 18 -3 56 -26 85 -51 29 -25 62 -45 73 -45 11 0 51 14 89 30 62 27
73 30 109 20 47 -13 67 -9 192 41 139 56 147 55 270 -43 56 -46 135 -114 174
-153 63 -62 74 -78 93 -139 26 -83 26 -102 4 -116 -16 -10 -16 -10 2 -8 18 3
20 -4 23 -64 l3 -68 -28 -1 c-15 -1 -37 -1 -48 0 -17 2 -17 0 -5 -8 8 -6 25
-11 36 -11 18 0 23 -8 28 -44 4 -25 17 -57 29 -73 92 -119 236 -277 270 -295
52 -28 21 27 -92 162 -39 47 -71 89 -71 93 0 5 19 -6 43 -23 23 -18 182 -124
352 -237 171 -112 355 -235 410 -272 l100 -67 1 -289 1 -290 -39 45 c-22 25
-78 92 -126 150 -47 58 -158 191 -247 295 -88 105 -193 231 -234 280 -101 122
-143 165 -159 165 -28 0 4 -59 90 -161 20 -24 63 -76 95 -115 32 -39 146 -176
253 -305 108 -129 235 -282 284 -341 49 -60 94 -108 101 -108 19 0 154 153
334 379 77 95 298 362 382 459 80 92 80 92 127 92 78 0 179 -27 250 -66 139
-77 197 -103 256 -113 114 -20 162 9 230 138 l37 71 470 0 470 0 -23 -32 c-35
-50 -38 -150 -5 -221 39 -87 122 -133 201 -113 39 10 32 28 -8 21 -127 -24
-231 210 -138 311 46 50 52 67 52 154 0 118 -13 159 -51 167 -19 4 -34 14 -39
29 -11 29 -39 44 -83 44 -35 0 -36 2 -151 193 -149 248 -149 247 -161 247 -5
0 -19 -17 -30 -38 -11 -20 -27 -37 -35 -37 -8 0 -28 22 -45 48 -90 145 -107
168 -118 165 -6 -2 -46 -61 -88 -131 l-76 -127 -31 50 c-17 27 -35 50 -39 50
-4 0 -28 -34 -52 -76 -24 -42 -50 -78 -57 -81 -21 -8 -84 16 -159 61 -173 104
-309 118 -389 40 -34 -33 -45 -54 -29 -54 4 0 22 15 41 33 32 31 35 32 120 32
95 0 138 -15 236 -78 59 -38 100 -57 124 -57 47 -1 45 -16 -14 -111 -77 -127
-76 -126 -145 -134 l-59 -7 -30 -59 c-27 -53 -30 -69 -30 -148 0 -74 3 -93 21
-115 20 -26 22 -26 155 -26 74 0 134 -3 134 -6 0 -17 -55 -118 -79 -143 -53
-56 -148 -40 -306 53 -52 30 -119 62 -148 70 -79 22 -161 30 -186 17 -19 -11
-20 -10 -11 14 11 28 4 55 -15 55 -6 0 -50 -46 -96 -102 -46 -56 -100 -120
-120 -142 -19 -23 -75 -90 -124 -151 -81 -99 -404 -486 -426 -509 -5 -6 -9
109 -9 275 l0 284 118 76 c64 42 216 142 337 221 121 79 245 159 275 178 30
19 79 51 108 72 28 21 52 36 52 33 0 -3 -17 -24 -38 -48 -75 -82 -152 -177
-152 -187 0 -43 89 35 259 228 61 69 74 90 78 125 4 33 1 46 -14 60 -24 21
-204 137 -213 137 -6 0 -525 -321 -754 -466 -38 -24 -76 -44 -84 -44 -8 0 -72
35 -141 78 -271 169 -461 288 -572 358 -64 41 -122 74 -129 74 -7 0 -49 -22
-92 -50 -43 -27 -80 -50 -82 -50 -2 0 -1 20 1 44 12 103 -54 282 -131 360 -70
70 -214 190 -264 218 -63 37 -97 35 -222 -14z m3645 -400 c26 -39 32 -56 25
-73 -5 -12 -4 -28 1 -36 13 -21 11 -36 -6 -36 -8 0 -15 4 -15 9 0 16 -17 8
-55 -28 -36 -32 -40 -34 -52 -18 -7 9 -14 21 -15 26 -4 12 -71 14 -75 2 -2 -5
-12 -27 -23 -49 l-20 -40 3 90 c2 97 0 93 110 268 l30 48 29 -57 c16 -31 44
-79 63 -106z m166 -26 c14 -26 49 -89 78 -141 55 -99 63 -131 13 -59 -16 24
-49 68 -72 97 l-43 54 -13 -32 c-16 -38 -31 -40 -44 -5 -8 21 -5 37 14 80 14
30 29 54 33 54 4 0 20 -22 34 -48z m-466 -25 c14 -24 25 -52 25 -63 0 -17 -1
-17 -16 -2 -15 15 -21 11 -74 -56 -50 -63 -140 -148 -140 -132 0 12 169 296
176 296 2 0 15 -20 29 -43z m-2481 -156 c34 -21 124 -78 201 -126 77 -48 192
-120 255 -160 104 -65 231 -144 274 -170 15 -9 16 -28 14 -142 l-3 -132 -220
144 c-568 369 -780 513 -770 524 22 21 153 100 169 100 11 1 47 -16 80 -38z
m1698 -12 c43 -28 78 -55 78 -59 0 -10 -215 -159 -465 -322 -446 -292 -516
-338 -521 -338 -2 0 -4 58 -4 129 0 103 3 133 15 145 9 8 59 41 113 72 53 32
169 102 257 157 318 200 429 267 439 267 5 0 45 -23 88 -51z m1555 -177 c46
-30 19 -32 -575 -34 -548 -3 -592 -2 -592 14 0 9 8 18 18 21 32 7 1137 7 1149
-1z m91 -88 c8 -2 12 -29 12 -88 0 -67 -3 -85 -16 -90 -9 -3 -298 -6 -644 -6
-565 0 -630 2 -645 16 -12 13 -15 33 -13 93 l3 76 285 5 c291 5 995 1 1018 -6z"/>
<path d="M6902 5135 c-22 -45 -13 -62 14 -27 13 16 15 16 25 0 7 -14 23 -18
64 -18 50 0 55 2 55 22 0 21 0 21 -15 2 -14 -18 -14 -18 -15 10 0 24 3 27 21
23 15 -4 19 -2 15 10 -3 8 -6 17 -6 19 0 2 -16 4 -35 4 -34 0 -35 -1 -36 -42
l0 -43 -22 43 c-11 23 -26 42 -32 42 -6 0 -21 -20 -33 -45z"/>
<path d="M7092 5168 c-7 -7 -12 -27 -12 -45 0 -32 2 -33 38 -33 43 0 62 14 62
45 0 28 -19 45 -50 45 -14 0 -31 -5 -38 -12z m58 -32 c0 -13 -7 -26 -15 -30
-11 -4 -15 2 -15 24 0 20 5 30 15 30 9 0 15 -9 15 -24z"/>
<path d="M7759 6005 c-59 -32 -74 -128 -26 -173 53 -50 124 -52 170 -4 33 35
42 72 27 117 -21 65 -107 95 -171 60z m124 -46 c26 -32 22 -85 -9 -114 -79
-73 -184 46 -108 122 21 21 32 24 62 19 20 -3 45 -15 55 -27z"/>
<path d="M7797 5946 c-4 -9 2 -17 14 -21 27 -9 26 -55 -1 -55 -15 0 -20 7 -21
28 l0 27 -10 -24 c-20 -51 20 -70 59 -28 26 28 28 50 6 71 -19 20 -40 20 -47
2z"/>
<path d="M2237 4704 c-11 -12 3 -24 29 -24 15 0 24 6 24 15 0 15 -40 21 -53 9z"/>
<path d="M2357 4703 c-16 -15 -5 -23 33 -23 29 0 40 4 40 15 0 10 -10 15 -33
15 -19 0 -37 -3 -40 -7z"/>
<path d="M2495 4700 c-3 -6 1 -13 9 -16 21 -8 66 3 66 16 0 13 -67 13 -75 0z"/>
<path d="M5793 3818 c-39 -19 -44 -52 -41 -281 4 -283 -15 -261 231 -265 204
-4 252 4 267 44 6 14 10 122 10 239 0 212 0 214 -24 242 l-24 28 -199 2 c-126
1 -206 -2 -220 -9z m416 -41 c12 -15 19 -443 7 -455 -4 -4 -96 -8 -205 -10
-169 -3 -199 -1 -210 12 -17 20 -16 433 1 453 15 19 391 19 407 0z"/>
<path d="M5843 3655 c0 -52 3 -78 13 -86 18 -15 18 -29 1 -29 -11 0 -14 -20
-13 -82 l1 -83 89 -3 89 -3 -7 32 c-3 17 -6 98 -6 180 l0 149 -55 0 -55 0 0
-40 c0 -35 -3 -40 -22 -40 -20 1 -21 2 -8 13 20 16 14 67 -8 67 -15 0 -18 -11
-19 -75z m137 10 c0 -28 -4 -35 -20 -35 -16 0 -20 7 -20 35 0 28 4 35 20 35
16 0 20 -7 20 -35z m-10 -101 c0 -8 -4 -12 -10 -9 -5 3 -10 13 -10 21 0 8 5
12 10 9 6 -3 10 -13 10 -21z m-1 -71 c0 -25 -1 -25 -8 -8 -5 11 -7 23 -4 28 8
14 13 7 12 -20z m-72 -60 c-3 -10 -5 -2 -5 17 0 19 2 27 5 18 2 -10 2 -26 0
-35z"/>
<path d="M6058 3578 c-2 -79 -2 -158 0 -176 l3 -33 52 3 52 3 3 60 c2 33 1
111 -3 173 l-7 112 -31 0 c-29 -1 -30 -2 -14 -14 12 -10 17 -27 17 -65 0 -48
-1 -51 -26 -51 l-27 0 7 65 c5 54 4 65 -8 65 -12 0 -15 -25 -18 -142z m72 -44
c0 -19 -5 -24 -25 -24 -20 0 -25 5 -25 24 0 13 6 26 13 29 22 7 37 -4 37 -29z
m-10 -63 c0 -5 3 -23 6 -40 6 -29 4 -31 -21 -31 -23 0 -26 3 -21 23 3 12 6 30
6 40 0 9 7 17 15 17 8 0 15 -4 15 -9z"/>
<path d="M7370 3580 c-9 -6 -10 -10 -3 -10 6 0 15 5 18 10 8 12 4 12 -15 0z"/>
<path d="M4155 3507 c-22 -5 -80 -20 -130 -32 l-90 -21 -3 -118 -3 -118 -24 5
c-24 4 -25 3 -25 -59 l0 -64 245 0 c227 0 245 1 245 18 0 25 -20 51 -27 35 -3
-10 -58 -13 -224 -13 l-219 0 0 26 0 26 231 -4 c226 -3 230 -3 225 17 -3 11
-6 28 -6 38 0 9 -4 17 -10 17 -5 0 -10 -7 -10 -15 0 -8 -6 -15 -14 -15 -12 0
-14 15 -11 75 l4 75 -39 20 c-49 25 -70 25 -198 0 -127 -25 -122 -25 -122 5 0
14 3 25 6 25 3 0 56 11 117 25 62 14 123 23 136 20 14 -4 52 -20 85 -36 50
-25 62 -28 73 -16 11 11 0 20 -66 55 -83 45 -85 45 -146 29z m70 -158 c0 -23
-3 -24 -105 -34 -58 -5 -111 -14 -118 -18 -30 -20 8 -27 139 -27 132 0 139 -1
139 -20 0 -19 -7 -20 -160 -20 l-160 0 0 58 0 59 123 15 c67 8 127 14 132 13
6 -1 10 -13 10 -26z"/>
<path d="M7300 3449 c0 -5 5 -7 10 -4 6 3 10 8 10 11 0 2 -4 4 -10 4 -5 0 -10
-5 -10 -11z"/>
<path d="M6913 3225 c-9 -24 1 -27 15 -5 8 13 8 20 2 20 -6 0 -13 -7 -17 -15z"/>
<path d="M3815 2790 c3 -5 8 -10 11 -10 2 0 4 5 4 10 0 6 -5 10 -11 10 -5 0
-7 -4 -4 -10z"/>
<path d="M4728 2743 c7 -3 16 -2 19 1 4 3 -2 6 -13 5 -11 0 -14 -3 -6 -6z"/>
<path d="M1300 7655 c-39 -39 -50 -45 -87 -45 -27 0 -45 5 -51 15 -7 14 -15
13 -63 -9 -30 -14 -59 -26 -66 -26 -23 0 -43 -32 -43 -70 0 -36 -3 -40 -52
-67 -36 -19 -54 -35 -56 -50 -4 -25 12 -31 25 -9 9 16 66 46 86 46 19 0 27 22
27 76 0 39 3 44 28 50 15 3 47 12 71 20 30 9 49 10 61 4 10 -6 98 -10 195 -10
l175 0 10 -24 c5 -13 6 -117 2 -242 l-7 -219 -181 0 -180 0 -54 -43 c-36 -29
-56 -39 -65 -32 -6 5 -40 16 -74 24 -35 8 -74 25 -87 37 -31 29 -26 33 19 14
44 -18 97 -20 97 -2 1 7 6 5 14 -6 22 -28 26 -7 19 97 -6 92 -7 96 -30 96 -27
0 -27 -1 -8 -62 17 -58 3 -73 -29 -33 -13 17 -28 25 -34 21 -16 -10 -15 -26 4
-47 9 -11 14 -25 10 -35 -6 -16 -8 -16 -19 -1 -6 9 -25 17 -42 19 -30 3 -30 3
-33 76 -2 39 -7 72 -12 72 -5 0 -10 -37 -12 -82 -3 -72 -1 -88 19 -125 27 -49
41 -58 103 -68 25 -4 57 -14 71 -23 26 -14 29 -13 89 26 l62 42 189 0 c139 0
190 3 196 13 4 6 9 109 10 227 3 195 -4 280 -22 298 -3 4 -40 8 -80 10 -74 4
-74 4 -69 31 4 21 0 29 -26 44 -44 24 -50 22 -100 -28z m-270 -524 c0 -6 -4
-13 -10 -16 -5 -3 -10 1 -10 9 0 9 5 16 10 16 6 0 10 -4 10 -9z"/>
<path d="M945 7646 c-39 -11 -40 -12 -37 -53 4 -51 22 -58 22 -8 0 30 4 35 32
43 17 4 33 13 36 20 4 14 2 14 -53 -2z"/>
<path d="M1125 7551 c-68 -6 -70 -7 -73 -35 -5 -39 7 -47 69 -48 84 -2 99 6
99 53 0 25 -4 38 -12 37 -7 -1 -44 -4 -83 -7z"/>
<path d="M1450 7410 l0 -70 30 0 30 0 0 70 0 70 -30 0 -30 0 0 -70z"/>
<path d="M1240 7420 l0 -40 40 0 c38 0 40 -1 34 -26 -6 -23 -4 -25 22 -22 28
3 29 5 32 66 l3 62 -66 0 -65 0 0 -40z"/>
<path d="M1004 7386 c-8 -22 -1 -59 14 -64 8 -2 12 7 12 28 0 20 4 29 11 24 6
-3 9 -17 6 -30 -2 -13 0 -24 5 -24 5 0 8 17 6 38 -2 30 -7 38 -26 40 -13 2
-24 -3 -28 -12z"/>
<path d="M1107 7373 c-11 -10 -8 -63 2 -63 12 0 16 8 25 43 6 26 -10 38 -27
20z"/>
<path d="M1170 7362 c0 -42 53 -61 63 -22 4 15 0 20 -13 20 -10 0 -25 3 -34 6
-9 3 -16 2 -16 -4z"/>
<path d="M1457 7244 c-4 -4 -7 -20 -7 -36 0 -25 3 -28 36 -28 34 0 35 1 32 33
-2 26 -8 33 -28 35 -14 2 -29 0 -33 -4z"/>
<path d="M1290 7223 c-17 -7 -30 -23 -30 -38 0 -6 23 -9 55 -7 50 4 55 6 55
28 0 21 -5 24 -32 23 -18 0 -40 -3 -48 -6z"/>
<path d="M1200 7201 c0 -25 35 -30 44 -6 3 8 1 15 -3 15 -5 0 -16 3 -25 6 -12
4 -16 0 -16 -15z"/>
<path d="M1097 7203 c-14 -13 -6 -24 15 -21 27 4 36 28 11 28 -11 0 -23 -3
-26 -7z"/>
<path d="M8797 7533 c-3 -5 -8 -42 -11 -83 l-7 -76 -67 4 c-46 2 -73 -1 -86
-10 -23 -18 -31 -83 -21 -182 6 -64 10 -76 27 -82 11 -3 102 -3 201 1 l180 7
-7 206 c-4 113 -9 209 -12 214 -6 10 -191 11 -197 1z m181 -40 c-3 -15 -16
-19 -66 -21 l-62 -3 0 -78 c0 -43 -3 -120 -7 -172 -10 -142 -21 -80 -22 119
l-1 172 81 0 c71 0 80 -2 77 -17z m-40 -200 c-2 -82 -7 -118 -15 -121 -10 -3
-13 25 -13 117 0 102 2 121 15 121 13 0 15 -17 13 -117z m-162 44 c3 -8 1 -42
-4 -78 l-10 -64 -1 58 -1 57 -40 0 -40 0 0 -85 c0 -78 -2 -85 -20 -85 -17 0
-20 7 -20 39 0 21 -3 65 -6 99 l-7 61 49 4 c27 2 59 4 72 5 12 1 25 -4 28 -11z"/>
<path d="M9147 7533 c-4 -3 -7 -48 -7 -99 l0 -93 -52 -3 c-30 -2 -53 -8 -56
-15 -5 -16 36 -17 74 -3 14 6 32 7 38 2 18 -13 91 -9 90 6 -1 6 -2 29 -2 49
-2 43 -19 34 -24 -12 -2 -19 -9 -30 -18 -30 -12 0 -16 18 -18 88 l-3 87 75 0
c63 0 75 -3 79 -17 3 -12 5 -9 6 8 1 23 -4 27 -36 33 -50 8 -138 8 -146 -1z"/>
<path d="M9255 7438 c9 -42 13 -48 29 -48 15 0 24 34 18 63 -2 11 -13 17 -29
17 -23 0 -24 -3 -18 -32z"/>
<path d="M9277 7355 c-23 -23 -21 -45 3 -45 24 0 35 22 22 45 -8 16 -10 16
-25 0z"/>
<path d="M9386 7299 c4 -24 8 -57 8 -74 l1 -30 -73 -1 c-67 0 -75 -3 -95 -27
-18 -21 -53 -35 -180 -72 -88 -25 -168 -45 -178 -45 -22 0 -25 -13 -5 -29 11
-9 51 -1 183 40 92 28 191 52 220 53 31 2 62 10 80 22 15 10 42 24 58 30 27
10 30 15 27 51 -3 51 -25 116 -41 121 -10 3 -11 -6 -5 -39z m-68 -141 c-5 -15
-48 -24 -48 -10 0 14 12 22 33 22 10 0 17 -5 15 -12z"/>
<path d="M9235 7250 c-10 -31 1 -38 40 -26 48 15 49 46 1 46 -26 0 -36 -5 -41
-20z"/>
<path d="M9120 7210 c0 -51 12 -64 38 -38 9 9 8 16 -5 30 -13 14 -14 21 -5 30
18 18 15 28 -8 28 -17 0 -20 -7 -20 -50z"/>
<path d="M9645 5710 c-2 -3 6 -21 18 -39 l21 -34 23 29 c13 16 23 32 23 35 0
9 -80 17 -85 9z"/>
<path d="M2610 5140 c0 -44 17 -59 47 -41 16 9 16 10 -5 11 -18 0 -23 5 -20
22 4 29 28 36 28 8 0 -12 5 -18 10 -15 6 3 10 -1 10 -9 0 -9 7 -16 15 -16 12
0 14 7 9 28 -9 34 -31 51 -66 52 -26 0 -28 -3 -28 -40z"/>
<path d="M2703 5173 c2 -5 12 -25 22 -45 9 -21 24 -38 33 -38 13 0 13 2 -1 18
-23 25 -22 54 0 50 10 -2 21 -16 24 -33 6 -27 7 -26 8 13 l1 42 -46 0 c-25 0
-43 -3 -41 -7z"/>
<path d="M2812 5155 c-10 -21 -9 -28 8 -45 30 -30 65 -13 65 31 0 31 -3 34
-31 37 -24 2 -33 -2 -42 -23z m58 -21 c0 -14 -21 -19 -33 -7 -9 9 13 34 24 27
5 -3 9 -12 9 -20z"/>
<path d="M2916 5158 c-9 -34 -7 -58 4 -58 5 0 13 15 18 33 10 33 10 33 28 -20
5 -15 9 -12 22 15 19 40 31 41 39 2 7 -38 33 -40 33 -2 0 15 5 33 12 40 9 9
-6 12 -69 12 -75 0 -81 -2 -87 -22z"/>
<path d="M3100 5141 c0 -40 1 -41 33 -41 49 0 63 13 51 47 -8 23 -16 29 -47
31 l-37 3 0 -40z m66 8 c3 -6 0 -15 -7 -20 -22 -14 -29 -11 -29 11 0 21 24 27
36 9z"/>
<path d="M3208 5139 c3 -31 8 -39 21 -37 9 2 17 10 17 18 1 8 2 21 3 28 2 24
30 11 36 -18 8 -36 37 -40 59 -8 33 47 23 56 -62 57 l-77 0 3 -40z m122 6 c0
-8 -4 -15 -9 -15 -5 0 -11 7 -15 15 -3 9 0 15 9 15 8 0 15 -7 15 -15z"/>
<path d="M3380 5171 c0 -19 23 -71 31 -71 5 0 9 11 9 24 0 13 3 31 6 40 5 12
0 16 -20 16 -14 0 -26 -4 -26 -9z"/>
<path d="M3468 5169 c-37 -21 -8 -69 43 -69 35 0 46 21 31 56 -12 26 -43 31
-74 13z m50 -33 c3 -12 -1 -17 -10 -14 -7 3 -15 13 -16 22 -3 12 1 17 10 14 7
-3 15 -13 16 -22z"/>
<path d="M3570 5140 c0 -37 2 -40 27 -40 25 0 25 1 10 18 -10 10 -17 28 -17
40 0 12 -4 22 -10 22 -5 0 -10 -18 -10 -40z"/>
<path d="M3647 5145 c-21 -43 -21 -45 -3 -45 7 0 16 9 19 21 6 23 27 17 27 -7
0 -8 7 -14 15 -14 19 0 19 13 0 50 -20 39 -38 38 -58 -5z"/>
<path d="M1061 3956 l-23 -25 78 2 c44 1 96 -2 118 -6 30 -6 37 -5 34 5 -8 24
-71 48 -129 48 -46 0 -59 -4 -78 -24z"/>
<path d="M1151 3474 c0 -11 3 -14 6 -6 3 7 2 16 -1 19 -3 4 -6 -2 -5 -13z"/>
<path d="M1166 3444 c-9 -22 -7 -44 2 -44 5 0 9 14 9 30 0 34 -2 37 -11 14z"/>
<path d="M8979 4024 c-5 -15 -8 -27 -7 -28 2 -1 40 0 86 2 71 3 82 6 82 22 0
20 -36 30 -106 30 -39 0 -46 -3 -55 -26z"/>
<path d="M8993 3940 c-35 -21 -48 -59 -15 -44 9 4 57 9 107 10 49 2 91 7 93
12 2 6 -7 17 -20 26 -33 23 -125 21 -165 -4z"/>
<path d="M8841 3484 c0 -11 3 -14 6 -6 3 7 2 16 -1 19 -3 4 -6 -2 -5 -13z"/>
<path d="M6928 4473 c0 -4 -1 -15 -2 -23 -1 -9 -14 -17 -35 -20 -65 -9 -46
-27 36 -34 87 -8 116 -2 111 23 -2 12 -12 15 -40 13 -31 -3 -37 0 -40 19 -3
22 -26 39 -30 22z"/>
<path d="M6870 4333 c0 -16 10 -18 85 -18 71 0 85 3 83 15 -3 12 -22 16 -86
18 -73 3 -82 1 -82 -15z"/>
<path d="M6913 4273 c-13 -2 -23 -11 -23 -20 0 -13 10 -15 55 -11 60 5 77 14
55 28 -15 10 -47 11 -87 3z"/>
<path d="M6995 4209 c-16 -5 -55 -8 -85 -7 -42 1 -55 -1 -55 -13 0 -40 185
-28 193 14 4 19 -8 20 -53 6z"/>
<path d="M2101 3307 c2 -1 13 -9 24 -17 19 -14 19 -14 6 3 -7 9 -18 17 -24 17
-6 0 -8 -1 -6 -3z"/>
<path d="M8108 3299 c-10 -5 -23 -19 -29 -31 -11 -21 -11 -21 20 1 17 12 31
27 31 32 0 11 -1 11 -22 -2z"/>
<path d="M2160 4010 c0 -5 5 -10 11 -10 5 0 7 5 4 10 -3 6 -8 10 -11 10 -2 0
-4 -4 -4 -10z"/>
<path d="M2160 3910 c0 -23 4 -30 20 -30 23 0 27 25 6 46 -21 21 -26 18 -26
-16z"/>
<path d="M2241 3874 c0 -11 3 -14 6 -6 3 7 2 16 -1 19 -3 4 -6 -2 -5 -13z"/>
<path d="M2570 3486 c0 -4 7 -14 15 -22 8 -9 15 -11 15 -6 0 5 -7 15 -15 22
-8 7 -15 9 -15 6z"/>
<path d="M3322 3900 c0 -14 2 -19 5 -12 2 6 2 18 0 25 -3 6 -5 1 -5 -13z"/>
<path d="M3518 3773 c-22 -6 -24 -55 -4 -73 8 -6 25 -10 38 -8 20 3 23 8 20
38 -2 30 -17 52 -32 49 -3 -1 -13 -3 -22 -6z m42 -55 c0 -12 -14 -10 -27 3 -6
6 -9 18 -6 27 5 13 8 12 20 -4 7 -10 13 -21 13 -26z"/>
<path d="M2880 3730 c0 -33 3 -40 19 -40 14 0 18 5 14 19 -3 11 0 27 5 37 9
16 11 13 17 -19 8 -41 25 -50 25 -13 0 44 -10 56 -46 56 -33 0 -34 -1 -34 -40z"/>
<path d="M2980 3730 c0 -27 4 -40 14 -40 9 0 12 8 9 24 -3 13 0 26 5 30 12 7
26 -29 17 -44 -3 -5 1 -10 9 -10 12 0 16 10 16 40 0 39 -1 40 -35 40 -34 0
-35 -1 -35 -40z"/>
<path d="M3069 3748 c-2 -27 1 -51 6 -57 2 -2 20 0 40 3 28 6 35 12 35 29 0
31 -18 47 -52 47 -22 0 -28 -5 -29 -22z m49 -27 c3 -16 -1 -22 -10 -19 -7 3
-15 15 -16 27 -3 16 1 22 10 19 7 -3 15 -15 16 -27z"/>
<path d="M3165 3738 c9 -42 14 -50 26 -43 5 4 9 22 9 41 0 28 -4 34 -21 34
-18 0 -20 -4 -14 -32z"/>
<path d="M3210 3763 c0 -15 40 -73 50 -73 13 0 13 17 0 25 -5 3 -10 17 -10 31
0 17 -5 24 -20 24 -11 0 -20 -3 -20 -7z"/>
<path d="M3270 3741 c0 -24 6 -34 23 -40 19 -7 23 -5 28 23 6 30 6 30 8 4 2
-41 21 -34 21 7 0 28 -4 35 -20 35 -16 0 -20 -7 -20 -32 0 -34 -12 -31 -15 4
-3 35 -25 34 -25 -1z"/>
<path d="M3370 3741 c0 -39 18 -49 30 -17 6 16 17 26 30 26 16 0 20 -7 20 -31
0 -40 17 -29 22 16 l4 35 -53 0 c-52 0 -53 -1 -53 -29z"/>
<path d="M3594 3746 c-10 -41 1 -56 41 -56 36 0 36 1 33 38 -3 34 -6 37 -35
40 -28 3 -33 -1 -39 -22z m56 -16 c0 -13 -7 -20 -20 -20 -13 0 -20 7 -20 20 0
13 7 20 20 20 13 0 20 -7 20 -20z"/>
<path d="M3686 3746 c-10 -40 2 -57 38 -54 28 3 31 6 31 38 0 32 -3 35 -31 38
-26 3 -33 -1 -38 -22z m54 -16 c0 -11 -7 -20 -15 -20 -8 0 -15 9 -15 20 0 11
7 20 15 20 8 0 15 -9 15 -20z"/>
<path d="M4837 3512 c-18 -4 -19 -20 -1 -66 3 -9 1 -16 -5 -16 -6 0 -11 -17
-11 -40 0 -38 2 -40 31 -40 l31 0 -7 78 c-8 84 -11 91 -38 84z"/>
<path d="M5370 3518 c0 -2 -2 -38 -5 -80 l-4 -78 29 0 30 0 -4 71 c-2 47 -8
74 -17 80 -13 8 -29 12 -29 7z"/>
<path d="M4942 3498 c4 -10 50 -14 176 -16 149 -2 172 0 172 13 0 13 -25 15
-176 15 -136 0 -175 -3 -172 -12z"/>
<path d="M5157 3423 c-4 -3 -7 -16 -7 -27 0 -19 6 -21 60 -21 55 0 60 2 60 21
0 12 -7 25 -16 28 -21 8 -89 8 -97 -1z"/>
<path d="M4832 3329 c-36 -14 -25 -69 14 -69 23 0 44 25 44 53 0 19 -29 26
-58 16z"/>
<path d="M5152 3308 c3 -33 3 -33 58 -33 55 0 55 0 58 33 l3 32 -61 0 -61 0 3
-32z"/>
<path d="M5356 3315 c-11 -29 5 -46 38 -43 25 2 32 8 34 31 3 25 1 27 -31 27
-22 0 -37 -6 -41 -15z"/>
<path d="M7585 3400 c3 -5 8 -10 11 -10 2 0 4 5 4 10 0 6 -5 10 -11 10 -5 0
-7 -4 -4 -10z"/>
<path d="M7570 3380 c0 -6 -5 -8 -12 -4 -6 4 -8 3 -5 -3 8 -13 87 -16 87 -2 0
6 -10 9 -22 8 -13 -2 -29 0 -35 4 -8 5 -13 3 -13 -3z"/>
<path d="M7493 3313 c4 -3 1 -13 -6 -22 -11 -14 -10 -14 5 -2 16 12 16 31 1
31 -4 0 -3 -3 0 -7z"/>
<path d="M7427 3253 c-4 -3 -7 -11 -7 -17 0 -6 5 -5 12 2 6 6 9 14 7 17 -3 3
-9 2 -12 -2z"/>
<path d="M6498 3283 c7 -3 16 -2 19 1 4 3 -2 6 -13 5 -11 0 -14 -3 -6 -6z"/>
<path d="M6370 3240 c8 -5 20 -10 25 -10 6 0 3 5 -5 10 -8 5 -19 10 -25 10 -5
0 -3 -5 5 -10z"/>
<path d="M6225 3200 c-3 -5 -1 -10 4 -10 6 0 11 5 11 10 0 6 -2 10 -4 10 -3 0
-8 -4 -11 -10z"/>
<path d="M6213 3157 l-22 -22 22 0 c16 0 22 6 23 23 1 12 1 22 0 21 0 0 -11
-10 -23 -22z"/>
<path d="M6170 3159 c0 -5 -4 -8 -8 -5 -5 3 -9 -1 -9 -8 0 -11 4 -12 19 -3 20
13 24 27 8 27 -5 0 -10 -5 -10 -11z"/>
<path d="M5580 2931 c0 -6 4 -13 10 -16 6 -3 7 1 4 9 -7 18 -14 21 -14 7z"/>
<path d="M9840 780 c0 -5 5 -10 11 -10 5 0 7 5 4 10 -3 6 -8 10 -11 10 -2 0
-4 -4 -4 -10z"/>
<path d="M328 646 c-21 -47 16 -83 52 -51 23 20 26 45 8 63 -20 20 -48 14 -60
-12z"/>
<path d="M9360 4049 c-14 -25 -11 -30 18 -22 13 3 22 13 22 24 0 25 -27 24
-40 -2z"/>
<path d="M765 4000 c-8 -13 37 -30 78 -30 l32 1 -24 19 c-25 21 -76 27 -86 10z"/>
<path d="M9374 3996 c-30 -13 -50 -33 -42 -41 6 -6 92 17 103 27 6 6 5 12 -5
18 -19 12 -18 12 -56 -4z"/>
<path d="M8670 3292 c-8 -9 -93 -97 -187 -195 -185 -190 -198 -211 -153 -252
20 -18 20 -17 20 15 0 28 14 48 103 139 206 211 262 273 262 289 0 23 -27 25
-45 4z"/>
<path d="M742 3140 c-24 -38 -28 -60 -12 -60 12 0 42 69 37 84 -2 6 -14 -5
-25 -24z"/>
<path d="M9450 3158 c0 -7 10 -29 22 -48 16 -26 23 -31 26 -18 4 20 -24 78
-38 78 -6 0 -10 -6 -10 -12z"/>
<path d="M8412 2112 c-24 -21 -40 -72 -23 -72 18 0 91 39 91 49 0 8 -33 41
-42 41 -3 0 -14 -8 -26 -18z"/>
<path d="M1754 2105 c-8 -20 0 -30 42 -50 49 -23 63 -7 29 34 -28 33 -62 41
-71 16z"/>
<path d="M1660 1481 c0 -6 4 -13 10 -16 6 -3 7 1 4 9 -7 18 -14 21 -14 7z"/>
<path d="M1714 1413 c17 -19 39 -32 50 -32 20 1 20 1 1 6 -11 3 -33 17 -50 31
l-30 27 29 -32z"/>
<path d="M8519 1413 c-13 -16 -12 -17 4 -4 16 13 21 21 13 21 -2 0 -10 -8 -17
-17z"/>
<path d="M2068 1264 c9 -7 19 -9 22 -6 3 4 9 10 13 13 4 3 -6 6 -23 6 -26 0
-27 -2 -12 -13z"/>
<path d="M2145 1230 c3 -5 14 -10 23 -10 15 0 15 2 2 10 -20 13 -33 13 -25 0z"/>
<path d="M2350 1146 c28 -17 50 -21 35 -7 -6 5 -21 12 -35 15 l-25 7 25 -15z"/>
<path d="M2530 1071 c0 -5 7 -11 15 -15 8 -3 15 -1 15 3 0 5 -7 11 -15 15 -8
3 -15 1 -15 -3z"/>
<path d="M7595 1020 c-3 -5 -1 -10 4 -10 6 0 11 5 11 10 0 6 -2 10 -4 10 -3 0
-8 -4 -11 -10z"/>
<path d="M2720 985 c0 -2 15 -12 33 -20 l32 -16 -25 20 c-24 20 -40 26 -40 16z"/>
<path d="M2810 936 c14 -7 29 -10 34 -8 11 6 -20 20 -44 21 -8 0 -4 -5 10 -13z"/>
<path d="M2860 910 c8 -5 24 -10 34 -10 26 0 18 6 -19 14 -22 5 -26 4 -15 -4z"/>
<path d="M7355 910 c-13 -6 -15 -9 -5 -9 8 0 22 4 30 9 18 12 2 12 -25 0z"/>
<path d="M3036 790 c8 -31 31 -57 41 -46 5 5 2 11 -4 13 -7 3 -13 14 -13 24 0
11 -4 18 -9 15 -5 -4 -12 0 -15 6 -3 7 -3 2 0 -12z"/>
<path d="M3102 690 c0 -14 2 -19 5 -12 2 6 2 18 0 25 -3 6 -5 1 -5 -13z"/>
<path d="M3090 648 c0 -9 5 -20 10 -23 13 -8 13 5 0 25 -8 13 -10 13 -10 -2z"/>
<path d="M7146 569 c-4 -44 -5 -83 -3 -85 3 -3 8 31 12 76 4 45 5 83 2 86 -2
3 -8 -32 -11 -77z"/>
</g>
</svg>
