<?xml version="1.0" standalone="no"?>
<!DOCTYPE svg PUBLIC "-//W3C//DTD SVG 20010904//EN"
 "http://www.w3.org/TR/2001/REC-SVG-20010904/DTD/svg10.dtd">
<svg version="1.0" xmlns="http://www.w3.org/2000/svg"
 width="2500.000000pt" height="2500.000000pt" viewBox="0 0 2500.000000 2500.000000"
 preserveAspectRatio="xMidYMid meet">

<g transform="translate(0.000000,2500.000000) scale(0.100000,-0.100000)"
fill="#000000" stroke="none">
<path d="M12080 24993 c-2575 -94 -5003 -952 -7056 -2494 -2309 -1732 -3952
-4196 -4650 -6973 -333 -1327 -444 -2703 -329 -4081 157 -1861 744 -3689 1703
-5300 1312 -2203 3275 -3965 5597 -5025 2241 -1023 4749 -1354 7195 -950 1707
282 3340 923 4790 1878 568 374 1033 733 1540 1188 211 190 703 681 894 894
2470 2747 3596 6335 3130 9975 -216 1686 -793 3339 -1681 4814 -757 1258
-1752 2396 -2903 3322 -2233 1796 -5017 2774 -7850 2757 -168 -1 -339 -3 -380
-5z m3885 -5907 c84 -22 118 -40 825 -448 377 -217 1185 -682 1795 -1033 1104
-636 1110 -639 1191 -720 87 -86 140 -176 169 -285 23 -85 22 -4297 0 -4385
-27 -108 -81 -202 -159 -280 -68 -67 -144 -112 -1876 -1110 -993 -571 -1830
-1049 -1860 -1061 -30 -12 -90 -28 -133 -35 -94 -14 -210 -1 -300 36 -31 12
-363 200 -737 416 l-680 394 0 962 c0 530 2 963 4 963 2 0 368 -209 812 -465
444 -256 813 -465 819 -463 7 2 567 322 1244 713 l1231 710 0 1425 0 1425
-817 472 c-450 259 -1006 579 -1235 712 -229 133 -422 241 -428 241 -10 0
-2257 -1294 -2407 -1387 l-73 -44 0 -3698 c0 -4098 6 -3741 -67 -3891 -26 -53
-56 -94 -107 -145 -68 -67 -135 -107 -1521 -904 -798 -459 -1610 -927 -1805
-1039 -195 -113 -375 -214 -400 -225 -77 -35 -142 -47 -245 -47 -104 0 -168
13 -245 47 -44 20 -3458 1983 -3596 2069 -145 89 -265 257 -294 409 -8 43 -10
656 -8 2200 l3 2140 23 67 c28 84 108 204 172 260 60 53 3647 2121 3740 2157
57 22 80 25 195 25 113 1 139 -3 200 -24 42 -15 342 -183 752 -420 l683 -395
0 -962 c0 -530 -2 -963 -3 -963 -2 0 -366 208 -808 461 -442 254 -811 464
-820 466 -10 3 -541 -298 -1253 -708 l-1236 -713 0 -1426 0 -1426 1235 -712
c679 -392 1239 -712 1245 -712 6 0 566 320 1245 712 l1235 712 2 3715 3 3716
23 67 c28 84 108 204 172 260 46 40 3545 2066 3682 2132 33 16 80 34 106 41
63 17 244 18 307 1z"/>
</g>
</svg>
