<?xml version="1.0" standalone="no"?>
<!DOCTYPE svg PUBLIC "-//W3C//DTD SVG 20010904//EN"
 "http://www.w3.org/TR/2001/REC-SVG-20010904/DTD/svg10.dtd">
<svg version="1.0" xmlns="http://www.w3.org/2000/svg"
 width="516.000000pt" height="264.000000pt" viewBox="0 0 516.000000 264.000000"
 preserveAspectRatio="xMidYMid meet">

<g transform="translate(0.000000,264.000000) scale(0.100000,-0.100000)"
fill="#000000" stroke="none">
<path d="M712 2428 c-27 -98 -66 -169 -133 -243 -95 -103 -262 -192 -396 -210
l-53 -7 0 -628 0 -629 37 -6 c73 -12 203 -57 264 -93 139 -82 260 -245 291
-393 l12 -59 1846 0 1847 0 12 58 c42 190 199 367 396 443 39 15 100 33 135
39 l65 11 -2 617 c-2 339 -3 622 -3 627 0 6 -37 18 -82 27 -197 41 -373 170
-455 335 -23 45 -47 107 -53 138 l-11 55 -1847 0 -1847 0 -23 -82z m298 -323
c0 -36 3 -65 8 -65 4 0 17 -3 30 -6 21 -6 22 -4 22 50 0 36 4 55 10 51 6 -3
10 -28 10 -55 l0 -49 43 -11 c23 -6 58 -15 77 -21 52 -13 117 -11 150 6 38 19
38 8 1 -52 -26 -43 -75 -144 -111 -228 l-12 -30 -13 40 c-20 66 -52 120 -91
155 -35 31 -91 60 -114 60 -6 0 -10 -70 -10 -204 0 -177 2 -205 16 -210 44
-17 44 -15 44 174 0 99 3 180 6 180 16 0 72 -42 92 -69 29 -39 20 -39 -28 -1
-21 17 -41 30 -44 30 -4 0 -5 -74 -4 -165 l3 -166 81 -28 c101 -35 142 -60
193 -117 52 -60 75 -129 75 -226 0 -65 -5 -86 -33 -142 -60 -122 -182 -204
-321 -215 l-75 -6 -3 -88 -3 -88 -37 3 c-37 3 -37 3 -40 53 l-3 50 -127 30
c-125 29 -229 38 -283 23 -20 -6 -28 -4 -33 7 -8 21 66 39 134 31 30 -3 112
-18 183 -34 l127 -29 0 27 c0 25 -4 28 -45 34 -24 4 -90 18 -145 32 -117 28
-192 30 -245 8 -20 -8 -39 -13 -42 -10 -3 2 14 37 37 77 40 67 76 141 114 234
13 31 19 36 26 25 5 -8 10 -24 10 -36 0 -37 59 -141 102 -179 42 -39 100 -68
156 -80 l32 -7 -2 203 -3 202 -25 8 c-194 56 -229 70 -259 104 -36 41 -41 61
-11 45 11 -6 20 -14 20 -19 0 -16 97 -60 177 -80 101 -26 103 -26 103 2 0 19
-10 24 -88 43 -156 38 -218 79 -270 178 -24 46 -27 62 -27 151 0 89 3 105 27
150 26 50 80 107 129 138 31 19 115 43 182 52 l47 6 0 60 0 59 40 0 40 0 0
-65z m370 -277 c-79 -155 -85 -165 -94 -150 -3 5 28 78 70 162 54 109 79 149
86 142 8 -8 -10 -52 -62 -154z m1914 103 c134 -66 236 -210 271 -383 19 -98
19 -301 0 -393 -17 -80 -69 -192 -115 -248 -123 -147 -374 -182 -543 -75 -104
67 -188 197 -222 348 -25 108 -23 310 4 411 49 187 157 318 304 365 26 8 78
13 137 11 86 -2 103 -5 164 -36z m998 1 c76 -37 174 -134 213 -212 55 -108 70
-190 69 -375 0 -157 -2 -176 -27 -252 -48 -145 -123 -234 -244 -291 -52 -24
-69 -27 -168 -27 -141 0 -199 22 -289 106 -97 91 -174 260 -177 393 -1 26 -6
7 -15 -54 -32 -221 -98 -351 -223 -441 -73 -53 -165 -80 -268 -80 -121 -1
-179 19 -290 100 -43 31 -23 32 23 0 82 -56 146 -74 264 -73 85 1 116 5 160
23 215 88 320 308 307 646 -9 226 -56 355 -172 464 -36 33 -70 61 -75 61 -6 0
-10 4 -10 10 0 17 73 -33 125 -85 28 -27 64 -77 82 -110 34 -65 73 -192 73
-240 0 -16 5 -37 10 -45 7 -11 10 -3 10 30 1 117 60 266 142 355 93 102 175
136 319 132 85 -2 103 -6 161 -35z m-2034 10 c196 -61 306 -231 257 -398 -37
-129 -124 -212 -355 -339 -58 -31 -128 -76 -155 -98 -51 -42 -122 -123 -144
-164 -11 -21 -10 -23 18 -23 20 0 32 6 36 19 8 27 101 121 156 158 25 17 97
59 160 94 136 74 201 121 257 184 119 135 107 354 -25 475 -26 25 -36 40 -27
40 9 0 42 -26 74 -58 73 -73 94 -134 88 -251 -8 -157 -100 -274 -308 -390
-231 -129 -304 -182 -336 -242 l-15 -29 199 0 c278 0 337 14 372 88 30 63 40
40 40 -93 l0 -125 -425 0 c-234 0 -425 1 -425 3 1 20 38 114 67 170 53 100
159 205 307 302 66 43 142 100 169 127 124 124 143 333 39 434 -67 65 -199 82
-288 36 -48 -24 -69 -47 -89 -95 -62 -148 75 -286 200 -202 41 29 50 27 41 -7
-21 -82 -93 -130 -192 -130 -105 1 -191 62 -219 156 -19 63 -19 90 0 153 27
91 118 173 230 209 62 20 222 17 293 -4z m2174 -43 c90 -58 160 -168 200 -317
29 -106 31 -341 4 -457 -47 -207 -162 -350 -324 -404 -89 -30 -236 -29 -313 2
-59 25 -149 84 -149 99 0 5 19 -5 43 -22 127 -91 313 -104 464 -33 112 54 210
188 248 343 9 36 19 124 22 195 12 275 -53 458 -205 582 -62 51 -58 55 10 12z
m-2179 -96 c43 -30 87 -94 87 -128 0 -12 -12 1 -32 35 -42 68 -97 100 -175
100 -102 0 -163 -53 -163 -141 0 -36 6 -48 40 -81 46 -43 30 -53 -19 -12 -62
52 -64 144 -5 208 42 44 80 57 157 53 56 -4 77 -10 110 -34z m-43 -263 c0 -25
-52 -109 -84 -138 -48 -42 -128 -60 -197 -44 -57 13 -103 42 -121 75 -11 21
-11 21 13 4 13 -9 34 -24 46 -33 49 -35 153 -39 214 -8 28 14 89 79 89 94 0
19 20 60 30 60 5 0 10 -5 10 -10z m-764 -172 c54 -65 78 -134 78 -228 0 -72
-4 -94 -27 -145 -74 -160 -193 -250 -369 -280 l-38 -6 0 -85 0 -85 -57 3 c-74
4 -87 28 -14 28 l51 0 0 85 0 85 30 0 c39 0 143 35 195 65 47 28 123 105 153
156 35 58 55 153 47 224 -7 66 -43 156 -77 193 -12 12 -17 22 -11 22 6 0 24
-15 39 -32z m-722 -240 c30 -105 62 -151 140 -204 55 -37 48 -46 -12 -15 -73
38 -151 145 -152 209 0 23 18 31 24 10z m1894 -265 l-3 -148 -414 0 c-323 0
-415 3 -418 13 -4 9 81 12 401 12 l406 0 0 135 c0 114 2 135 15 135 13 0 15
-21 13 -147z"/>
<path d="M870 1961 c-115 -35 -185 -137 -160 -232 20 -72 90 -131 198 -164
l22 -6 0 166 0 167 -27 -7 c-41 -10 -71 -32 -93 -68 -38 -61 -20 -133 49 -196
33 -31 34 -32 6 -16 -78 46 -114 109 -101 180 10 52 66 110 121 125 37 10 45
17 45 36 0 26 -14 29 -60 15z"/>
<path d="M1010 1095 l0 -236 28 3 27 3 5 201 5 202 53 -20 c29 -11 69 -35 88
-54 40 -41 46 -69 7 -32 -29 26 -70 50 -110 62 l-23 7 0 -180 c0 -204 -3 -199
76 -160 172 83 156 309 -28 398 -35 16 -78 33 -95 36 l-33 7 0 -237z"/>
<path d="M3041 1876 c-133 -44 -191 -198 -191 -508 0 -170 16 -271 59 -364 51
-109 117 -154 229 -154 58 0 75 4 113 28 97 62 149 235 149 492 0 277 -52 435
-161 490 -52 27 -142 34 -198 16z m198 -51 c30 -15 91 -73 91 -86 0 -16 -12
-10 -51 25 -91 83 -226 70 -283 -26 -47 -81 -60 -163 -61 -383 0 -164 3 -213
19 -273 22 -86 66 -157 118 -191 48 -31 42 -39 -9 -12 -91 46 -133 135 -154
328 -14 135 -5 336 21 437 29 116 72 169 160 197 32 11 116 2 149 -16z"/>
<path d="M4051 1880 c-87 -21 -154 -107 -182 -234 -22 -98 -19 -461 4 -553 39
-150 117 -233 227 -241 88 -6 126 4 175 49 87 80 118 202 119 459 1 335 -51
472 -196 515 -56 16 -94 18 -147 5z m185 -56 c36 -17 101 -81 91 -90 -4 -4
-24 9 -46 29 -64 57 -143 71 -217 38 -96 -44 -134 -171 -134 -447 0 -273 46
-415 153 -471 35 -18 30 -27 -6 -14 -44 17 -104 79 -126 131 -37 85 -54 234
-47 415 8 229 41 341 115 394 57 41 147 47 217 15z"/>
</g>
</svg>
