<?xml version="1.0" standalone="no"?>
<!DOCTYPE svg PUBLIC "-//W3C//DTD SVG 20010904//EN"
 "http://www.w3.org/TR/2001/REC-SVG-20010904/DTD/svg10.dtd">
<svg version="1.0" xmlns="http://www.w3.org/2000/svg"
 width="900.000000pt" height="834.000000pt" viewBox="0 0 900.000000 834.000000"
 preserveAspectRatio="xMidYMid meet">

<g transform="translate(0.000000,834.000000) scale(0.100000,-0.100000)"
fill="#000000" stroke="none">
<path d="M3131 6985 c-31 -23 -52 -77 -45 -114 3 -16 19 -42 35 -57 26 -25 38
-28 131 -35 57 -4 124 -12 149 -18 236 -54 461 -210 592 -412 119 -182 152
-315 161 -644 12 -447 38 -581 142 -728 l34 -47 -40 -39 c-34 -32 -40 -44 -40
-79 0 -54 39 -100 92 -109 31 -4 51 2 125 41 159 85 180 137 97 243 -91 117
-142 203 -153 256 -20 99 -31 233 -37 457 -3 124 -12 266 -20 315 -87 541
-547 957 -1084 982 -98 4 -118 2 -139 -12z"/>
<path d="M2397 6860 c-459 -53 -851 -370 -1003 -814 -48 -141 -58 -222 -56
-478 3 -268 -10 -470 -33 -525 -9 -21 -49 -87 -89 -148 -87 -131 -96 -159 -67
-218 16 -33 41 -55 114 -104 151 -101 284 -152 497 -189 l95 -17 58 -63 c156
-171 390 -267 647 -267 268 1 482 90 652 271 l73 79 90 17 c177 35 317 89 488
188 78 45 107 84 107 143 0 44 -5 53 -99 176 -78 102 -96 142 -110 239 -14 96
-31 373 -31 515 0 331 -118 616 -349 846 -225 224 -485 339 -803 353 -56 3
-138 1 -181 -4z m-137 -1477 c180 -60 286 -77 480 -77 184 -1 283 13 398 56
29 11 56 17 60 14 12 -13 7 -311 -7 -386 -85 -470 -418 -771 -755 -684 -97 25
-173 71 -262 159 -119 118 -197 265 -244 456 -38 155 -38 406 1 565 l10 40
112 -56 c62 -31 155 -70 207 -87z"/>
<path d="M6541 6677 c-69 -40 -67 -148 3 -180 17 -8 69 -17 116 -20 489 -34
820 -479 820 -1100 0 -157 -11 -209 -61 -289 -53 -85 -81 -143 -129 -269 -60
-157 -136 -274 -257 -396 -97 -97 -103 -106 -103 -144 0 -56 42 -99 98 -99 49
0 92 30 190 134 119 126 207 272 280 468 22 57 59 135 84 173 78 121 108 239
108 418 -2 652 -332 1152 -847 1283 -120 30 -268 40 -302 21z"/>
<path d="M5773 6585 c-343 -62 -620 -275 -781 -600 -108 -217 -160 -491 -149
-774 6 -175 32 -260 115 -383 33 -49 71 -120 87 -165 141 -398 429 -681 764
-749 110 -22 283 -15 391 16 89 25 217 91 299 154 162 125 310 343 401 590 18
49 53 121 78 160 89 138 119 276 109 502 -29 610 -314 1051 -782 1211 -151 51
-371 67 -532 38z m-108 -916 c163 -92 194 -104 288 -107 112 -5 155 6 295 74
117 58 184 73 256 60 51 -10 63 -35 74 -154 15 -169 50 -190 217 -133 49 17
92 31 97 31 13 0 9 -118 -8 -267 l-16 -137 -55 -60 c-69 -77 -76 -91 -102
-201 -13 -55 -43 -134 -77 -204 -51 -103 -65 -124 -152 -211 -76 -76 -115
-105 -179 -139 -215 -110 -451 -110 -666 0 -64 34 -103 63 -178 139 -85 84
-102 108 -147 200 -45 92 -64 148 -103 303 -6 23 -33 63 -73 107 l-63 71 -17
107 c-10 59 -20 149 -23 199 l-6 93 69 -24 c119 -40 171 -50 202 -37 43 18 54
46 63 165 10 127 18 141 96 162 69 19 127 9 208 -37z"/>
<path d="M3981 4308 c-88 -80 -108 -117 -92 -169 14 -48 53 -79 98 -79 37 0
82 19 102 44 12 14 19 11 64 -27 146 -121 295 -286 388 -430 l38 -58 -60 -92
c-33 -51 -89 -150 -124 -220 l-65 -128 -17 43 c-33 86 -151 307 -217 409 -138
210 -350 438 -523 562 -142 101 -167 99 -301 -25 -163 -152 -316 -240 -500
-290 -58 -15 -109 -21 -207 -21 -166 -1 -267 22 -420 98 -122 60 -183 103
-316 224 -88 79 -103 87 -164 82 -37 -3 -142 -76 -262 -180 -307 -269 -570
-695 -697 -1132 -70 -243 -105 -458 -113 -699 l-6 -175 26 -31 c15 -17 39 -37
54 -43 21 -8 933 -11 3556 -9 l3529 3 35 39 36 39 -6 156 c-30 716 -342 1390
-824 1776 -194 155 -218 158 -344 39 -339 -316 -715 -388 -1079 -204 -97 49
-169 101 -270 195 -93 86 -131 105 -182 90 -44 -14 -182 -120 -288 -222 l-105
-101 -72 97 c-129 173 -307 348 -467 460 -89 61 -118 58 -205 -21z"/>
<path d="M7290 4112 c-65 -62 -73 -73 -77 -115 -5 -41 -2 -49 25 -77 40 -39
91 -41 145 -4 37 25 39 25 65 8 43 -28 210 -193 272 -269 208 -254 368 -597
440 -945 23 -113 50 -314 50 -374 l0 -42 -34 4 c-78 9 -146 -40 -146 -105 0
-83 39 -103 195 -103 190 0 201 13 192 222 -34 750 -383 1455 -901 1819 -56
40 -77 49 -112 49 -38 0 -48 -6 -114 -68z"/>
</g>
</svg>
